<?xml version="1.0" encoding="UTF-8"?>
<svg id="a" data-name="Layer 1" xmlns="http://www.w3.org/2000/svg" width="100" height="100" viewBox="0 0 100 100">
  <defs>
    <style>
      .b {
        fill: #3f5d6c;
      }

      .c {
        fill: #fff;
      }

      .d {
        fill: #29ba9b;
      }

      .e {
        fill: #399380;
      }

      .f {
        fill: #34917d;
      }

      .g {
        fill: #33917d;
      }

      .h {
        fill: #7fccb7;
      }

      .i {
        fill: #34907c;
      }

      .j {
        fill: #27b899;
      }

      .k {
        fill: #33907c;
      }

      .l {
        fill: #425f6e;
      }

      .m {
        fill: #427780;
      }

      .n {
        fill: #27b799;
      }

      .o {
        fill: #2bba9c;
      }

      .p {
        fill: #26b99a;
      }

      .q {
        fill: #437880;
      }

      .r {
        fill: #45c3a9;
      }

      .s {
        fill: #28b99b;
      }
    </style>
  </defs>
  <ellipse class="c" cx="52" cy="53.5" rx="28" ry="25.5"/>
  <g>
    <path class="p" d="m54.8606,17.4511c2.1833.5512,4.3665,1.1024,6.5498,1.6537l.6769.9943c.1385-.2436.277-.4873.4156-.7309.6367.0029,1.2734.0057,1.9101.0086.1818.2468.4953.7245.5263.7069.8726-.4979,1.7314-1.0257,2.5402-1.6199.0731-.0537-.2066-.588-.3224-.8991.1683-.3429.3367-.6857.505-1.0286.1639.0322.3278.0644.4917.0966-.1419-.1981-.2838-.3961-.4258-.5942.0702-.3698.1405-.7395.2107-1.1092,2.1573,2.1941,4.7343,3.6907,7.6584,4.6104-.6246.4891-1.2492.9781-1.8738,1.4672-.2409.0071-.4818.0142-.7226.0212.1308.2475.2617.495.3925.7424-.1019,1.0926-.2037,2.1852-.3056,3.2778-.6182.7074-.5099,1.7715.2312,2.0477.0648.0241.2475-.2684.3754-.4138.4566.3646.9131.7293,1.3697,1.0939-.0065.0888.0031.1758.029.2609.1141.3315.2282.663.3422.9945.3296-.1466.6592-.2931.9888-.4397.3637.1078.7274.2156,1.091.3234.354.1518.708.3036,1.0621.4554.0054-.1691.0107-.3381.0161-.5072.3628-.106.7256-.212,1.0884-.3179.1032.1568.2064.3136.3097.4704.0843-.2131.1685-.4263.2528-.6394.2684-.1227.5367-.2453.8051-.368.1164.1484.2328.2968.3493.4452.0627-.2371.1253-.4742.188-.7113,0,0-.0109.0198-.0108.0198.0999-.0716.1997-.1432.2995-.2148.4458-.2915.8916-.583,1.3375-.8745.4616.0952.9232.1903,1.3849.2855.7335,1.6452,1.467,3.2905,2.2005,4.9357-.0046.0808-.0163.1607-.0349.2395-1.8212-.0577-3.3261.6303-4.568,1.9383-.3629.1832-.8864.2839-1.0363.5763-.1142.2227.2459.6886.395,1.0464.0145.1807.0289.3614.0434.5421,0,.276,0,.5521,0,.8281-.0195.1807-.0391.3614-.0586.5421-.1451.1337-.2901.2673-.4352.401.1865.1395.373.279.5596.4184.0876.1749.1752.3498.2628.5247-.3943,1.0408-.1608,1.8794.7998,2.4837.0579.0687.1158.1373.1734.206-.6795.9006-.436,1.8535.5734,2.2452.1217.7278.2434,1.4557.365,2.1835-.011.3554-.022.7108-.033,1.0662.0738.3726.1476.7452.2214,1.1178.108.9992.216,1.9985.324,2.9977-.0732,1.0851-.1462,2.1703-.2193,3.2555-.1264.464-.2528.9279-.3791,1.3919-.2382.3032-.5756.5733-.6903.9176-.1574.4725-.0836,1.0189-.2199,1.5023-.2653.9414-.806,1.8491-.8631,2.7931-.0581.9615-.5123,1.4458-1.1948,1.8982-1.361-.0091-2.7219-.0183-4.0829-.0274-.0632-2.4736-2.9961-4.8742-5.3796-4.2946-1.37.3332-2.4606,1.1574-2.9101,2.5959-.4162,1.3323.1523,2.3807,1.0236,3.3217,1.528,1.6502,3.3074,2.2906,6.1562,1.1359.2446.0853.4831.2123.7348.249,1.4014.2041,2.8059.3862,4.2094.5758-.3057,2.7119,1.7677,3.8063,3.4939,5.1339.1754.1349.3791.2331.5697.3483-1.4101,1.2325-2.8136,2.4729-4.2403,3.6858-.1467.1247-.4323.0859-.6534.123-.9241-.924-1.7228-2.0701-2.819-2.6893-.6653-.3758-1.8852-.1563-2.6858.1896-1.0768.4653-1.9895,1.3106-2.9727,1.9927-.1009.064-.2019.1281-.3028.1921-2.6274,1.1105-4.8579,3.1613-7.8922,3.3264-.2022.011-.3877.329-.581.5044-.9826.192-1.9653.3838-2.9479.5757-.0894.0109-.1789.0218-.2683.0327-2.0058.2482-4.0117.4965-6.0175.7447-.7784-.0847-1.5582-.2503-2.335-.2378-1.8553.0299-3.7093.1439-5.5638.2239-1.7118-.121-3.4866.2587-5.0967-.6986-.2311-.1374-.6133-.0206-.9256-.0214-.0745-.0408-.1532-.0522-.2362-.0341-.8327-.2085-1.6655-.417-2.498-.6251-.0798-.0773-.1599-.155-.24-.2327-.1013.0141-.2025.0282-.3038.0422l.0299-.1045c-.1882-.0697-.3764-.1394-.5646-.2091-.9122-.2874-1.8244-.5748-2.7366-.8623-.0942-.0741-.1884-.1482-.2826-.2224-.5404-.1986-1.0807-.3971-1.6211-.5957-.1801-.0813-.3603-.1627-.5404-.244-.8228-.4636-1.6455-.9271-2.4683-1.3907-.0897-.077-.1794-.1541-.2691-.2311-.9266-.6037-1.8523-1.2089-2.7802-1.8107-1.0194-.6611-2.0725-1.0061-3.2285-.3276-.1037.0705-.2074.1409-.311.2114-.2612.2702-.5225.5404-.7837.8106-.2504.2814-.5009.5629-.7513.8443-.2059.3613-.4118.7226-.6177,1.0839-.0736.0062-.1471.0127-.2206.0195-1.4694-1.2764-2.9388-2.5527-4.4082-3.8291.0014-.164.0027-.328.0041-.4921.9085-.7023,1.9884-1.2707,2.6738-2.1475.5964-.7629.7472-1.8743,1.0949-2.8316.0381-.0769.0477-.1572.0287-.2409.5155-.0981,1.0295-.2054,1.5468-.2925,1.1286-.1901,2.2589-.37,3.3885-.5541.2225.0303.4652.0134.6645.0983,2.1118.8998,4.3268.4653,5.7533-1.2176,1.0212-1.2047,1.2168-2.6477.606-4.0538-.4984-1.1474-1.5137-1.6122-2.8423-1.6958-2.5043-.1575-4.9687,1.3391-5.2766,4.123-.4012.0664-.801.178-1.2039.191-1.3302.043-2.6615.0503-3.9923.0713.0165-.0749.0186-.1502.0064-.2259-.0698-.0955-.1395-.1909-.2093-.2864-.3916-1.2741-.7832-2.5482-1.1748-3.8223.2667-.1535.5335-.3071.8002-.4606-.3313-.2129-.6626-.4259-.9939-.6388-.2045-1.0953-.4091-2.1905-.6136-3.2858-.0682-1.1696-.1363-2.3391-.2045-3.5087.0869-1.1932.1737-2.3865.2606-3.5797.335-.2064.6701-.4128,1.0051-.6191-.2574-.1576-.5149-.3151-.7723-.4727.0131-.1821.0262-.3642.0393-.5463,1.141-.296,1.5195-1.3577.7787-2.1843.0002-.3635.0004-.7271.0005-1.0906.144-.0816.2879-.1632.4319-.2449-.1227-.1005-.2454-.201-.3681-.3015.4155-1.2809.8309-2.5619,1.2464-3.8428.3636-.1702.7271-.3405,1.0907-.5107-.1633-.2783-.3267-.5566-.49-.8349,0-.091,0-.182,0-.273.1576-.1549.3989-.283.4582-.4692.2394-.7509-.9166-3.2472-1.6784-3.478-.2582-.0782-.651.2884-.9823.4517-.4491-.2089-.8982-.4177-1.3472-.6266-.1265-.3141-.253-.6282-.3795-.9422-.2343.2235-.4686.447-.7028.6705-.1849-.0084-.3698-.0168-.5546-.0252,0-.2556-.0001-.5112-.0002-.7668.5475-1.1486,1.074-2.308,1.6549-3.4395.1846-.3595.514-.6446.7771-.9637.6009.433,1.1973.8726,1.8156,1.2791.031.0204.251-.247.383-.3804.3635.0769.727.1537,1.0905.2306.2765.1645.5531.329.8296.4935.2745.1019.549.2038.8236.3057.4512.8864.9025.8865,1.3538.0002.3629-.0949.7258-.1899,1.0887-.2848.2824.1086.7164.3868.8194.2946.3345-.2992.5479-.734.8079-1.1166,0,0-.0097.0178-.0096.0178.0986-.073.1971-.146.2956-.2189.1871-.1871.3741-.3743.5612-.5614.1717-.1929.3434-.3858.515-.5787.1132-.6349.2264-1.2697.3396-1.9046.2517-.2893.5035-.5786.7552-.8679-.2518-.1657-.5035-.3314-.7553-.4972-.0909-.3642-.1819-.7283-.2728-1.0925,1.1036-.5874.2412-1.1609-.0362-1.7061-.2296-.4511-.5482-.8569-.8274-1.2827,1.8206-1.0944,3.6411-2.1887,5.4617-3.2831.3485.1797.6971.3593,1.0456.539.0934.1824.1868.3647.2802.5471-.1287.2467-.2574.4934-.3861.7401.239.0113.478.0225.717.0338.6401.5552,1.2803,1.1104,1.9204,1.6656.0556.256.1112.512.1668.768.2066-.2347.4131-.4693.6197-.704.6367.0076,1.2734.0152,1.91.0229-.0248.7269.3764.8718.9631.6548,1.31-.4846,2.6166-.9808,3.9061-1.5167.233-.0968.3779-.4058.5634-.6169,0,0-.0147.0213-.0145.0213.1021-.0646.2041-.1293.3061-.1939.0938,0,.1877-.0002.2815-.0003.0924.128.1849.2559.2773.3839.0892-.1316.1784-.2632.2676-.3948.3639-.0881.7279-.1762,1.0918-.2644.304.2543.7447.7818.8862.711.4064-.2033.6918-.6488,1.0247-.999.6367.0058,1.2734.0117,1.9101.0175-.0477.8634.4613,1.1111,1.198,1.028.8074-.0911,1.924.3955,2.0778-1.0296.7278.0868,1.4556.1736,2.1834.2604.3338.257.6425.5771,1.0189.727.0954.038.4067-.4664.6187-.7215Zm-29.7517,14.9667c-.2678.1895-.5356.379-.8034.5685,0,0,.0075-.0067.0075-.0067-.3604.4771-.7209.9541-1.0813,1.4312-.0854.2386-.1709.4772-.2563.7158-.5058.5578-1.1006,1.0593-1.4973,1.6863-.6459,1.0206-.617,2.1445-.0236,3.1922.1474.2602.556.3723.8446.5525.1184-.257.2368-.5139.3551-.7709.4549.003.9098.006,1.3648.009.1646.1624.3263.3282.5008.4792.0108.0094.1227-.0981.1875-.1512-.1563-.1197-.3127-.2394-.469-.3591.1955-.2658.3909-.5317.5864-.7975.2992-.1407.69-.2055.8807-.436.6074-.7343,1.1855-1.5026,1.6826-2.3144.24-.392.945-.9598-.0794-1.3365.0869-.183.1737-.3659.2605-.5489,1.1763.233,1.6403-.1508,1.6336-1.3512-.0057-1.0251-.8946-1.8576-1.6888-1.5817-.439.0601-.878.1201-1.317.1802-.1654-.1605-.3309-.3209-.4963-.4814-.1961.3492-.3922.6985-.5883,1.0477-.0017.091-.0027.182-.0031.273Zm18.4127-6.8938h.0239c.6768.0712,1.4139.2516,1.4668-.8091.1895-.0614.379-.1227.5685-.1841.2104.2611.5281.7756.6129.7398.3775-.1598.6885-.4771,1.0234-.7375.3549-.0128.7097-.0338,1.0647-.0372,2.1478-.0207,2.465-.3306,2.4973-2.4526.1607-.1608.3213-.3216.482-.4824-.3723-.282-.7145-.648-1.1339-.7985-.1394-.05-.4772.4535-.7243.7039-1.0018-.0033-2.0037-.0066-3.0055-.0098-.1179-.1536-.2358-.3072-.3537-.4607-.154.1602-.3079.3205-.4619.4807-.3643.0857-.7286.1715-1.093.2572-.0935-.2378-.1203-.6007-.2918-.6921-.8485-.4523-3.3343.576-3.8013,1.5256-.5352.1191-1.0704.2383-1.6056.3574-.1932.0785-.3864.1569-.5796.2354-.2491.0225-.4983.045-.7474.0675-1.1305-.6183-1.5918-.0996-1.708,1.0057-.182.0897-.3639.1795-.5459.2692-.1265-.1499-.3273-.4487-.3688-.428-1.2437.6203-2.4741,1.2677-3.6866,1.9465-.0279.0156.1738.4416.2684.6762-.2713.2742-.5427.5485-.814.8227-.283.2846-.566.5692-.849.8538.2801.1511.5601.3022.8402.4533.2682.2841.5364.5681.8046.8522-.0095.1767-.0842.4769-.0186.5116.9398.4971,1.6245.324,1.889-.8024,0,0,.0058.005.0058.005.5181-.1163,1.0731-.1506,1.5473-.3644,1.4271-.6433,2.8427-1.3193,4.2201-2.0619.5036-.2715.8872-.7656,1.3256-1.1582.5499-.1746,1.0997-.3492,1.6496-.5238.3406,1.0781.9585.4156,1.4991.2391Zm3.945,10.4101c1.0454-2.2558.5654-2.9686-1.9999-2.9692-1.4935-.0003-2.9873-.0192-4.4803.0079-.8828.0161-1.6814.3012-1.6467,1.3545.018.5459.3516,1.0815.5426,1.6217-1.2637.5652-1.3705.8459-.6303,1.656-.0054.6378-.0108,1.2755-.0162,1.9133-.146.1305-.2919.2611-.4379.3916.1816.1375.3632.275.5449.4125.0819.1754.1638.3508.2456.5261.005,1.7758.1509,1.9226,1.9235,1.9356.2645.0939.529.1878.7935.2818.1503.1684.3006.3368.451.5051.1223-.1523.2447-.3046.367-.4569.3645,0,.7291,0,1.0936,0,.1792.15.4734.4605.5207.4266,1.1116-.7976,3.358-.3133,3.0964-2.6894-.0113-.1028.1292-.2318.2157-.3344,1.3821-1.6389,1.1407-3.5443-.5833-4.583Zm4.3854.0014c-.1041.1019-.2082.2038-.3123.3056-1.2319-.1045-1.1478,1.0155-1.4237,1.6689-.6023,1.4263.4272,3.5033,1.7527,3.7878,2.1201,2.1459,4.7895,1.6967,6.535.0022.1791-.003.4394.0694.5238-.0215.4808-.518.9197-1.0749,1.3729-1.6186-.2481-.1806-.4961-.3612-.7442-.5418.0072-.4553.0143-.9106.0215-1.3659.2339-.3532.4678-.7064.7018-1.0595l-1.3417-.8455c-.0881-.0899-.1763-.1798-.2644-.2697.5507-.6669,1.2962-1.465.6709-2.2448-.4037-.5034-1.3916-.6734-2.139-.7357-1.3476-.1123-2.7176-.1099-4.0654.0008-.6865.0564-1.6175.2605-1.954.7386-.5347.7598-.1015,1.622.6661,2.1991Zm-13.9291,12.0968c-.4402-.0974-.8803-.1948-1.3205-.2922-1.528-.6311-3.0445-.1726-3.716,1.3659-1.3274,3.0414-1.3542,6.279-.5276,9.3947.8798,3.3165,2.6992,6.1053,6.0911,7.4942,2.3108,1.3195,4.7972,1.8385,7.4424,1.6335,2.3558.006,4.7117.0119,7.0676.0179.5869-.0021,1.2072.1193,1.7545-.0291,1.8099-.4905,3.5934-1.0783,5.387-1.6288.4961-.1653,1.0521-.2374,1.4785-.5112,2.6126-1.6778,4.3551-3.9637,4.7809-7.1216.0812-.1807.1624-.3615.2436-.5422.0085-.2747.0171-.5494.0256-.824.1698-.2248.475-.443.4862-.6754.0523-1.088.0519-2.1812.0015-3.2694-.011-.2376-.3038-.4621-.4668-.6926-.0086-.2785-.0171-.5569-.0257-.8354-.0865-.2682-.173-.5363-.2594-.8045-.0064-.2768-.0128-.5536-.0192-.8304-.0647-.1779-.1293-.3557-.1939-.5336-.7712-1.7106-2.1529-2.1414-3.8792-1.8518-.3116-.1432-.6659-.4617-.9272-.3981-.9281.226-1.8538.5191-2.7181.9209-.3397.1579-.5151.6694-.7654,1.0199-.3645.0859-.7289.1719-1.0933.2578-.2056-.1586-.4112-.3171-.6169-.4757l-.4734.7543c-.1822-.0034-.3644-.0068-.5467-.0103-.3817-.7151-.7448-.7073-1.0893.0279-.4781.0993-.9552.2775-1.4346.2842-2.091.0293-4.1829.0271-6.2739-.0065-.5259-.0084-1.0492-.1755-1.5737-.2694-.1639-.2471-.2831-.6525-.4995-.7136-.8697-.2455-1.7682-.3909-2.6591-.5572-.1687-.0315-.4017-.0572-.5188.0301-.7142.5326-1.1078.1448-1.5491-.4165-.5302-.6744-1.1282-.9045-1.6116.0884Z"/>
    <path class="m" d="m80.5342,66.5662c-1.4035-.1896-2.808-.3718-4.2094-.5758-.2517-.0367-.4902-.1637-.7346-.2491.37-.9197.7399-1.8392,1.1097-2.7587,1.361.0091,2.7219.0183,4.083.0273.3706.0839.7412.1679,1.1118.2519.4286.0934.8942.3439,1.2796.2532,1.7097-.4022,3.4013-.7135,4.9964-1.6747,2.6064-1.5705,1.8681-4.3621.0763-5.6172-1.0113-.7084-2.1754-1.205-3.2945-1.7478-.2178-.1057-.5455.0152-.8225.0316.0731-1.0852.1462-2.1704.2193-3.2555.898.2776,1.7958.5551,2.6937.8326.0972.0739.1944.1478.2917.2217,1.1216.727,2.3389,1.3417,3.3469,2.2019,3.1414,2.6809,3.1324,7.6817-1.6161,10.1972-2.6878,1.4238-5.5571,1.8408-8.5314,1.8614Z"/>
    <path class="q" d="m14.5198,51.0149c.0682,1.1696.1363,2.3391.2046,3.5089-1.8901-.0844-3.3576.8471-4.6368,2.0697-1.8575,1.7754-1.8932,3.2453.0335,4.8695,1.933,1.6295,4.2053,2.4102,6.788,1.7805,1.3309-.021,2.6622-.0284,3.9923-.0713.4029-.013.8027-.1246,1.2039-.1909.365.9154.73,1.8306,1.0951,2.7458-1.1296.1841-2.2599.364-3.3885.5541-.5174.0872-1.0313.1944-1.547.2924-.085-.0247-.1673-.0178-.247.0206-2.8787-.0662-5.7001-.3945-8.2666-1.85-2.3301-1.3215-3.9559-3.0723-3.7591-6.0001.1983-2.9502,2.0857-4.6726,4.4122-5.9899,1.2873-.7289,2.7381-1.169,4.1152-1.7392Z"/>
    <path class="f" d="m75.597,19.5398c-2.9241-.9197-5.501-2.4164-7.6584-4.6104-.2718-.5603-.5577-1.1143-.813-1.682-.7549-1.6785.198-3.2333,2.0097-3.2024,1.151.0196,2.2996.1722,3.4493.2651.0949.074.1898.1479.2846.2219,3.0092,1.0791,5.5465,2.7202,6.887,5.7865.069.0962.138.1925.207.2887.2994,2.1111-1.3205,2.717-2.7689,2.9631-.5158.0876-1.064-.0147-1.5973-.0304Z"/>
    <path class="k" d="m30.0266,15.772c-1.8206,1.0944-3.6411,2.1887-5.4617,3.283-.363.1621-.7261.3243-1.0891.4866-1.5118.2253-2.9129.0172-4.0952-1.047-.0158-.1819-.0315-.3638-.0473-.5457-.0606-.6365-.1213-1.273-.1819-1.9095.3466-.5518.6933-1.1035,1.0399-1.6553.9013-.8172,1.8027-1.6344,2.7041-2.4516.0995-.0692.1989-.1384.2984-.2076,1.8405-1.193,3.8271-1.9604,6.0445-1.6592.8128.1104,1.8383.3989,2.2966.9782.7368.9313.3707,2.0873-.2634,3.0887-.2012.3178-.2899.7068-.4298,1.0635-.2716.1921-.5434.384-.8151.5759Z"/>
    <path class="i" d="m38.9682,87.8327c.4006.4854.857.9355,1.1915,1.4629,1.0344,1.6307.6115,3.0822-1.1382,3.8398-.7276.315-1.5212.6664-2.2864.67-2.1988.0103-4.4115-.0342-6.5927-.284-1.2932-.1481-2.354-.9752-2.5456-2.4078-.172-1.2868.5216-2.2753,1.5205-2.9703,1.7373-1.2086,3.752-1.5866,5.8245-1.7156.1721.0123.3441.0246.5162.0369,1.1037.3667,2.2073.7333,3.311,1.1,0,0-.0082-.0104-.0082-.0103.0692.0929.1383.1857.2074.2785Z"/>
    <path class="i" d="m68.7566,93.291c-3.0436.9808-6.1144.8699-9.1041-.0822-1.7033-.5424-2.0787-2.9103-.8496-4.2645.3634-.4004.7803-.7522,1.1726-1.1263,1.1201-.4571,2.2402-.9142,3.3603-1.3713.723.0856,1.4461.1712,2.1691.2567.4447.0188.8895.0376,1.3342.0564.0983.0654.1967.1308.295.1962.1765.0248.353.0495.5296.0743.0975.0733.195.1467.2925.22,2.9805,1.3248,3.5113,2.7582,2.7258,5.208-.2754.1882-.5507.3765-.8261.5647-.1764.0196-.3528.0393-.5291.0589-.19.0697-.3801.1394-.5701.2091Z"/>
    <path class="f" d="m14.9876,26.9254c-.2631.3191-.5925.6042-.7771.9637-.5809,1.1315-1.1073,2.2909-1.6549,3.4395-.1749.2559-.3497.5118-.5246.7677-.4348.3076-.8963.584-1.2994.9287-1.1602.9923-2.7792.6781-3.0403-.8041-.2462-1.3976-.2804-2.9699.1214-4.3061.4094-1.3617,1.4106-2.5665,2.2516-3.7709.7558-1.0825,1.8891-1.6531,3.1732-1.1804,1.279.4708,1.2114,1.7402,1.2476,2.8668.0996.1035.1992.207.2989.3105.0754.0757.1508.1515.2263.2274-.0075.1859-.0151.3715-.0227.5572Z"/>
    <path class="f" d="m14.4636,72.2857c1.4694,1.2764,2.9388,2.5527,4.4082,3.8291.1659.3675.3318.7351.4977,1.1026.0712.2114.2287.4362.1985.632-.13.8439-.042,2.0265-.5512,2.4272-.5965.4693-1.8182.535-2.6148.285-2.4549-.7703-4.196-2.56-5.489-4.7109-.4263-.7092-.4645-1.6961-.5298-2.5672-.0833-1.1128.7559-1.282,1.6255-1.3271.2733.0002.5465.0005.8198.0007.3555.1007.711.2013,1.0664.3021.1895.0089.3791.0177.5687.0266Z"/>
    <path class="f" d="m79.704,75.8573c.2211-.0371.5067.0017.6534-.123,1.4267-1.213,2.8302-2.4533,4.2403-3.6858.093-.008.186-.016.2789-.024l.5596-.0002c.2705-.0233.5411-.0466.8116-.0699.1821,0,.3642,0,.5463,0,1.7038.3611,2.1765,1.4321,1.3978,3.2167-.8643,1.981-2.4301,3.3315-4.1365,4.5506-.1004.0695-.2007.139-.3011.2084-.6132.2645-1.2165.7136-1.8421.7473-.8036.0433-2.068.0105-2.3372-.4528-.4244-.7303-.2329-1.8477-.2083-2.7988.0136-.5254.2184-1.0459.3371-1.5686Z"/>
    <path class="f" d="m86.7976,31.8942c-.7335-1.6452-1.467-3.2905-2.2004-4.9357-.0891-.3737-.1784-.7474-.2676-1.1211.0054-.179.0073-.3582.0166-.537.1042-2.009.5976-2.4527,2.6997-2.4299.0953.065.1906.1299.2858.1949,2.9104,2.0625,4.1629,4.9623,4.0494,8.4372-.0215.6573-.5924,1.4682-1.1497,1.8943-.7518.5748-1.5704.0958-2.2395-.4637-.3093-.2587-.6109-.5267-.916-.7904-.0928-.0828-.1856-.1657-.2783-.2485Z"/>
    <path class="q" d="m63.3358,86.4467c-1.1201.4571-2.2402.9143-3.3603,1.3714.7843-2.6069.9713-5.1731-.5186-7.6252.0447-.0757.06-.157.0457-.2438.9827-.1919,1.9653-.3838,2.9479-.5757.7841,2.2122,1.5015,4.4335.9174,6.8297-.0376.0777-.0483.1589-.0322.2437Z"/>
    <path class="q" d="m38.769,87.5645c-1.1037-.3667-2.2074-.7333-3.3111-1.1-.0699-.092-.1397-.1841-.2096-.2762-.2877-2.3676.1501-4.6262,1.0236-6.8194,0,0,.1034.0259.1034.0259.0662-.008.1281-.0287.1858-.062.8327.2085,1.6655.417,2.4981.6256-.016.0807-.0071.1585.0268.2333-.2078.727-.4155,1.454-.6233,2.181-.0676.185-.1351.3699-.2027.5549-.0002.9096-.0004,1.8193-.0006,2.7289.0653.1861.1306.3722.1959.5584.1045.4498.2091.8997.3136,1.3495Z"/>
    <path class="r" d="m45.3179,80.7125c1.8545-.08,3.7085-.194,5.5638-.2239.7769-.0125,1.5566.1531,2.335.2378-.3347.1045-.6662.2867-1.0045.3006-1.9652.0806-3.932.1454-5.8985.1528-.3314.0012-.6639-.3037-.9958-.4672Z"/>
    <path class="p" d="m15.5401,33.0188c.3313-.1633.7241-.5299.9823-.4517.7618.2307,1.9178,2.7271,1.6784,3.478-.0594.1862-.3006.3144-.4583.4692-.1657-.1821-.3314-.3643-.4971-.5464-.5684-.9831-1.1369-1.9661-1.7053-2.9492Z"/>
    <path class="p" d="m41.7328,17.9055c-.1856.211-.3304.52-.5634.6169-1.2895.5359-2.596,1.0322-3.9061,1.5167-.5867.217-.9879.0722-.9631-.6548,1.8109-.493,3.6217-.9859,5.4326-1.4789Z"/>
    <path class="p" d="m67.1571,17.5646c.1158.3111.3955.8454.3224.8991-.8088.5942-1.6677,1.1219-2.5402,1.6199-.031.0177-.3445-.46-.5263-.7069.9147-.604,1.8294-1.2081,2.7441-1.8121Z"/>
    <path class="p" d="m23.4758,19.5415c.363-.1622.7261-.3245,1.0891-.4866.2792.426.5979.8317.8274,1.2828.2774.5452,1.1399,1.1187.0362,1.7061-.312-.5484-.624-1.0967-.936-1.6451-.0648-.0663-.1297-.1325-.1945-.1988-.2741-.2195-.5482-.439-.8223-.6584Z"/>
    <path class="p" d="m51.0396,17.1852c-.1538,1.4251-1.2704.9385-2.0778,1.0296-.7367.0831-1.2458-.1646-1.198-1.028.1821-.0026.3643-.0052.5464-.0079.7279.7661,1.4556.7666,2.1832-.0005l.5462.0068Z"/>
    <path class="p" d="m15.8311,43.6128c.7408.8265.3623,1.8883-.7787,2.1843.0927-.6369.1853-1.2737.278-1.9106.1669-.0912.3338-.1825.5007-.2737Z"/>
    <path class="p" d="m14.9876,26.9254c.0076-.1856.0152-.3713.0227-.5572.7252.4851,1.4506.9705,2.176,1.4558-.132.1334-.352.4008-.383.3804-.6183-.4065-1.2148-.8461-1.8156-1.2791Z"/>
    <path class="p" d="m45.8536,17.1693c-.3329.3503-.6183.7957-1.0247.999-.1415.0708-.5822-.4567-.8862-.711.637-.096,1.274-.192,1.911-.288Z"/>
    <path class="p" d="m73.694,26.6823c-.1279.1454-.3106.4379-.3754.4138-.7411-.2762-.8494-1.3403-.2312-2.0477.2022.5446.4044,1.0893.6065,1.6339Z"/>
    <path class="p" d="m76.4237,28.592c-.3296.1466-.6592.2931-.9888.4397-.1141-.3315-.2282-.663-.3422-.9945.0802.0096.1579,0,.2333-.0291.3659.1946.7319.3893,1.0978.5839Z"/>
    <path class="p" d="m83.472,43.8861c-1.0093-.3917-1.2528-1.3446-.5734-2.2452.1914.7484.3824,1.4968.5734,2.2452Z"/>
    <path class="p" d="m82.7252,41.4349c-.9606-.6043-1.194-1.4429-.7998-2.4837.2666.8279.5332,1.6558.7998,2.4837Z"/>
    <path class="p" d="m54.8606,17.4511c-.2121.2552-.5233.7595-.6187.7215-.3764-.1499-.6851-.47-1.0189-.727.5459.0018,1.0917.0036,1.6376.0055Z"/>
    <path class="p" d="m23.9997,27.7472c-.26.3826-.4733.8174-.8079,1.1166-.103.0921-.537-.186-.8194-.2946.5424-.274,1.0849-.548,1.6273-.822Z"/>
    <path class="p" d="m81.5535,35.6948c-.1491-.3577-.5092-.8237-.395-1.0464.1499-.2924.6734-.3931,1.0363-.5763-.2137.5409-.4275,1.0818-.6412,1.6227Z"/>
    <path class="s" d="m50.4933,17.1784c-.7275.7671-1.4553.7666-2.1832.0005l2.1832-.0005Z"/>
    <path class="p" d="m15.0131,46.3433c.2574.1576.5149.3151.7723.4727-.335.2064-.6701.4128-1.0051.6191.0776-.3639.1552-.7279.2327-1.0918Z"/>
    <path class="p" d="m25.7015,23.1363c.2518.1657.5035.3314.7553.4972-.2517.2893-.5035.5786-.7552.8679,0-.455,0-.91,0-1.3651Z"/>
    <path class="p" d="m17.7425,36.7874c.1633.2783.3267.5566.49.8349-.3636.1702-.7271.3405-1.0907.5107.0345-.2665.0691-.5329.1036-.7994.1657-.1821.3314-.3642.4971-.5463Z"/>
    <path class="p" d="m13.1105,32.1205c.2343-.2235.4685-.447.7028-.6705.1265.3141.253.6282.3795.9422-.3608-.0906-.7215-.1811-1.0823-.2717Z"/>
    <path class="p" d="m62.5028,19.3682c-.1385.2436-.2771.4873-.4156.7309-.2256-.3314-.4512-.6629-.6769-.9943.3641.0878.7283.1756,1.0924.2634Z"/>
    <path class="e" d="m20.1915,14.384c-.3466.5518-.6933,1.1035-1.0399,1.6553.3466-.5518.6933-1.1035,1.0399-1.6553Z"/>
    <path class="p" d="m30.0266,15.772c.2718-.1919.5435-.3838.8151-.5759.0767.3715.1536.7432.2305,1.1149-.3485-.1797-.6971-.3593-1.0456-.539Z"/>
    <path class="p" d="m34.3902,19.3615c-.2066.2347-.4131.4693-.6197.704-.0556-.256-.1112-.512-.1668-.768.2622.0213.5243.0427.7865.064Z"/>
    <path class="p" d="m84.3296,25.8375c.0893.3737.1785.7474.2676,1.1211-.4618-.0952-.9234-.1903-1.385-.2855.3724-.2785.7449-.5571,1.1174-.8356Z"/>
    <path class="p" d="m73.3931,21.7706c-.1309-.2475-.2617-.495-.3925-.7424.2409-.0071.4817-.0142.7226-.0212-.11.2546-.2201.5091-.3301.7637Z"/>
    <path class="d" d="m17.7425,36.7874c-.1657.1821-.3314.3642-.4971.5463,0-.4552,0-.9104,0-1.3657.1657.1821.3314.3643.4971.5464,0,.091,0,.182,0,.273Z"/>
    <path class="p" d="m31.6833,17.6319c-.239-.0113-.478-.0225-.717-.0338.1287-.2467.2574-.4934.3861-.7401l.3309.7738Z"/>
    <path class="p" d="m78.5929,28.8636c-.0054.1691-.0107.3381-.0161.5072-.354-.1518-.708-.3036-1.0621-.4554l1.0781-.0518Z"/>
    <path class="p" d="m21.2837,28.854c-.4514.8863-.9027.8862-1.3538-.0002.4513,0,.9026.0001,1.3538.0002Z"/>
    <path class="p" d="m83.804,47.1358c.0762.024.1543.0359.2342.0356-.0043.3607-.0085.7215-.0128,1.0822-.0738-.3726-.1476-.7452-.2214-1.1178Z"/>
    <path class="d" d="m15.8311,43.6128c-.1669.0912-.3338.1825-.5007.2737.0962-.4553.1923-.9107.2885-1.366.0709-.0003.1419.0002.2128.0017-.0002.3635-.0004.7271-.0005,1.0906Z"/>
    <path class="p" d="m81.6627,38.4265c-.1865-.1395-.373-.279-.5596-.4184.1451-.1337.2901-.2673.4352-.401l.1244.8195Z"/>
    <path class="p" d="m67.728,16.0385c.1419.1981.2838.3961.4258.5942-.1639-.0322-.3278-.0644-.4917-.0966.022-.1658.0439-.3317.0659-.4975Z"/>
    <path class="p" d="m81.5861,27.7426c-.0627.2371-.1253.4742-.188.7113-.1164-.1484-.2328-.2968-.3493-.4452.1791-.0887.3582-.1774.5372-.2661Z"/>
    <path class="p" d="m80.2438,28.3767c-.0843.2131-.1685.4263-.2528.6394-.1032-.1568-.2064-.3136-.3097-.4704.1875-.0564.375-.1127.5624-.169Z"/>
    <path class="s" d="m12.031,32.0962c.1749-.2559.3497-.5118.5246-.7677,0,.2556.0002.5112.0002.7668-.1749.0003-.3499.0006-.5248.0009Z"/>
    <path class="p" d="m15.8316,42.5222c-.0709-.0014-.1418-.002-.2128-.0017.0922-.1816.1844-.3631.2765-.5447.1227.1005.2454.201.3681.3015-.144.0816-.2879.1632-.4319.2449Z"/>
    <path class="p" d="m42.8508,17.7217c-.0892.1316-.1784.2632-.2676.3948-.0924-.128-.1849-.2559-.2773-.3839.1816-.0036.3633-.0073.5449-.011Z"/>
    <path class="j" d="m35.483,78.8293c.1882.0697.3764.1394.5646.2091-.1882-.0697-.3764-.1394-.5646-.2091Z"/>
    <path class="o" d="m30.3023,76.905c.1801.0813.3603.1627.5404.244-.1801-.0813-.3603-.1627-.5404-.244Z"/>
    <path class="o" d="m14.4636,72.2857c-.1896-.0088-.3792-.0176-.5687-.0266.191-.1552.3819-.3104.5727-.4655-.0014.164-.0027.3281-.0041.4921Z"/>
    <path class="p" d="m81.8748,27.5476c-.0998.0716-.1996.1432-.2995.2148.0998-.0716.1996-.1432.2995-.2148Z"/>
    <path class="o" d="m27.5649,75.2833c.0897.077.1794.1541.2691.2311-.0897-.077-.1794-.1541-.2691-.2311Z"/>
    <path class="p" d="m24.2857,27.5461c-.0985.073-.197.146-.2956.2189.0985-.073.197-.146.2956-.2189Z"/>
    <path class="p" d="m14.784,26.1408c-.0996-.1035-.1993-.2071-.2989-.3105.0997.1035.1993.207.2989.3105Z"/>
    <path class="p" d="m42.0244,17.7329c-.102.0647-.204.1293-.3061.1939.1019-.0647.204-.1293.3061-.1939Z"/>
    <path class="e" d="m23.1939,11.7248c-.0995.0692-.1989.1384-.2984.2076.0995-.0692.1989-.1384.2984-.2076Z"/>
    <path class="o" d="m32.4638,77.7447c.0942.0741.1884.1482.2826.2224-.0942-.0741-.1884-.1482-.2826-.2224Z"/>
    <path class="q" d="m38.9682,87.8327c-.0691-.0928-.1383-.1856-.2074-.2785.0691.0928.1383.1857.2074.2785Z"/>
    <path class="b" d="m38.4499,65.9948c-3.3918-1.3888-5.2112-4.1777-6.0911-7.4942-.8266-3.1156-.7998-6.3533.5276-9.3947.6715-1.5385,2.188-1.997,3.7159-1.3658.1723,1.136.394,2.2671.5063,3.4089.2124,2.1607,1.3643,3.5326,3.1577,3.6574,2.1413.149,3.1324-.6772,3.7187-3.1016.1651-.6829.3269-1.3665.4902-2.0498.0953-.018.1905-.0361.2857-.0541.5245.0942,1.0478.2612,1.5737.2697,2.0909.0336,4.1829.0358,6.2739.0065.4794-.0067.9565-.1849,1.4346-.284.0916.0213.1833.0424.2749.0635.1633.8689.289,1.747.4981,2.6047.4043,1.6586,1.5129,2.5371,3.1291,2.5459,1.7693.0097,3.0809-.8378,3.4183-2.4283.3049-1.4369.4026-2.9178.5916-4.3793.1063-.1675.2126-.335.3189-.5025,1.7256-.2904,3.1073.1403,3.8777,1.8509.0644.1778.1296.3557.1948.5337.0064.2768.0128.5536.0189.8304.0864.2682.1731.5363.2597.8045.0086.2785.0171.5569.0253.8353-.0071,1.5458-.0138,3.0916-.0205,4.6374-.0085.2747-.0171.5494-.0256.824-.0812.1807-.1624.3615-.2436.5422-.4258,3.1579-2.1683,5.4438-4.7809,7.1216-.4264.2739-.9824.3459-1.4785.5113-.019-.2691-.0487-.538-.0551-.8075-.0424-1.7667-1.1345-3.0869-2.715-3.2751-1.9458-.2316-3.6093.6408-4.0115,2.2978-.2697,1.1111-.25,2.2926-.3598,3.4426-2.3558-.006-4.7117-.0119-7.0676-.0179-.1055-.8407-.2168-1.6808-.3153-2.5224-.2383-2.0373-1.1242-3.1669-3.2207-3.1789-2.4835-.0142-3.4222,1.0994-3.6123,3.0502-.0337.3455-.1929.6787-.2942,1.0176Z"/>
    <path class="h" d="m50.779,22.0433c-.0323,2.1219-.3495,2.4319-2.4973,2.4526-.355.0034-.7098.0244-1.0647.037-.5454-.0008-1.0909-.0015-1.6363-.0021-.1895.0614-.379.1227-.5683.1847-.9965.1902-1.9932.3798-2.9899.5694-.5499.1746-1.0997.3492-1.6494.5244-2.6761.5773-5.0129,1.8267-7.0931,3.5839,0,0-.0058-.005-.0057-.0048-.6234.097-1.247.1938-1.8706.2906-.2682-.2841-.5364-.5681-.8049-.8519.0028-.4356.006-.8715.0092-1.3074.2713-.2742.5427-.5485.8137-.8228,1.2622-.7316,2.5248-1.4631,3.7873-2.1946.182-.0897.3639-.1795.5459-.2692.5693-.3352,1.1387-.6704,1.708-1.0056.2491-.0225.4983-.045.7475-.0677.1932-.0785.3864-.1568.5796-.2351.5352-.1191,1.0704-.2383,1.6056-.3572,1.3644-.2777,2.7288-.5557,4.0932-.8336.3643-.0857.7286-.1715,1.0929-.2571.2718-.0066.5437-.0134.8156-.0202,1.0018.0033,2.0037.0066,3.0055.0101.4587.1924.9175.3846,1.3763.5768Z"/>
    <path class="g" d="m76.6999,62.9825c-.3699.9195-.7397,1.8391-1.1097,2.7587-2.849,1.1549-4.6284.5144-6.1564-1.1357-.8713-.941-1.4398-1.9894-1.0236-3.3217.4494-1.4386,1.5401-2.2628,2.9101-2.5959,2.3835-.5796,5.3164,1.821,5.3796,4.2946Z"/>
    <path class="k" d="m23.2005,65.727c-.365-.9152-.73-1.8304-1.0951-2.7458.3078-2.784,2.7723-4.2807,5.2766-4.1232,1.3286.0836,2.344.5484,2.8423,1.6958.6108,1.4061.4151,2.8491-.606,4.0538-1.4265,1.683-3.6415,2.1175-5.7533,1.2176-.1993-.0849-.442-.0679-.6645-.0983Z"/>
    <path class="h" d="m22.9753,35.1266c.0854-.2386.1709-.4772.2561-.7166.9995.0066,1.117-.654,1.0816-1.4304,0,0-.0075.0067-.0076.0065.3535-.115.7071-.2299,1.0608-.3448.0845-.1686.1689-.3372.2534-.5058.1924-.1857.3847-.3713.5771-.557.439-.0601.878-.1201,1.3176-.1808.2132.4312.426.8631.6387,1.2949,0,.1817,0,.3634,0,.5451l-.5839,1.0934c-.0868.183-.1737.3659-.2607.5489-.828,1.3623-1.6559,2.7247-2.4838,4.087-.1955.2658-.3909.5317-.5859.7977-.0744.0002-.1478.0104-.2197.0309-.4549-.003-.9098-.006-1.3648-.009-.8989-.771-.982-1.5911-.349-2.6231.3637-.5929.4558-1.3524.6702-2.0369Z"/>
    <path class="g" d="m43.0803,36.0224c-.9711-.0167-1.9423-.0334-2.9136-.05-.0949-.0077-.1896-.0155-.2843-.0233-.191-.5402-.5246-1.0758-.5426-1.6217-.0347-1.0534.7639-1.3385,1.6467-1.3545,1.493-.0272,2.9868-.0082,4.4803-.0079,2.5653.0005,3.0453.7134,2.0002,2.9696-.173.0133-.3464.0263-.5198.0392-.7124.005-1.4248.01-2.1371.015-.5766.0112-1.1532.0225-1.7298.0337Z"/>
    <path class="k" d="m58.6735,35.9774c-.7157.0033-1.4314.0066-2.1471.0098-.6064-.1846-1.2746-.7626-1.6909.2654-.9945-.1057-1.989-.2113-2.9835-.317-.7677-.5772-1.2009-1.4394-.6662-2.1992.3365-.4781,1.2675-.6822,1.954-.7386,1.3478-.1107,2.7179-.1131,4.0654-.0008.7475.0623,1.7354.2324,2.139.7357.6253.7797-.1202,1.5779-.6709,2.2448Z"/>
    <path class="p" d="m46.9471,35.9737c.1734-.013.3467-.0259.5198-.0392,1.7237,1.0383,1.9651,2.9436.583,4.5826-.0866.1026-.227.2316-.2157.3344.2617,2.376-1.9848,1.8917-3.0964,2.6894-.0473.0339-.3415-.2765-.5207-.4266,2.1525-.5059,3.5859-1.7551,3.578-4.0521-.0035-1.0304-.5486-2.059-.848-3.0884Z"/>
    <path class="p" d="m33.2799,29.3932c2.0803-1.7572,4.417-3.0066,7.0931-3.5839-.4385.392-.8221.8861-1.3257,1.1576-1.3774.7425-2.793,1.4186-4.2201,2.0619-.4742.2138-1.0292.2481-1.5473.3644Z"/>
    <path class="p" d="m44.4752,49.655c-1.982-.3798-3.9663-.7483-5.9427-1.155-.2257-.0464-.4074-.3067-.6096-.4678.4833-.9929,1.0814-.7627,1.6116-.0883.4413.5614.8349.9491,1.5491.4165.1171-.0873.3502-.0615.5188-.0301.8909.1662,1.7894.3117,2.6591.5572.2164.0611.3356.4665.4995.7134-.0953.0179-.1905.036-.2858.054Z"/>
    <path class="p" d="m83.7509,55.8987c-.5557,2.2489-1.1105,4.498-1.6686,6.7462-.0517.2083-.1247.4113-.1877.6168-.3705-.084-.7411-.168-1.1117-.2519.6824-.4523,1.1366-.9367,1.1947-1.8981.0571-.944.5977-1.8517.8631-2.7931.1363-.4834.0625-1.0298.2199-1.5023.1147-.3443.4522-.6144.6903-.9176Z"/>
    <path class="p" d="m22.9753,35.1266c-.2144.6845-.3065,1.444-.6702,2.0369-.633,1.032-.5499,1.8521.349,2.6231-.1184.2569-.2367.5139-.3551.7709-.2886-.1802-.6972-.2923-.8446-.5525-.5934-1.0477-.6222-2.1715.0236-3.1922.3967-.6269.9915-1.1284,1.4973-1.6863Z"/>
    <path class="p" d="m61.9552,47.9995c-.9825.259-1.9641.5213-2.9479.7752-.379.0978-.7629.1766-1.1446.2641.2502-.3505.4257-.862.7654-1.0199.8643-.4018,1.7901-.6948,2.7181-.9209.2613-.0636.6155.2549.9275.3985-.1059.1679-.2122.3354-.3186.5029Z"/>
    <path class="p" d="m51.5397,36.2411c-1.1091,1.8924-1.0838,3.7164.329,5.4567-1.3255-.2846-2.355-2.3615-1.7527-3.7878.2759-.6534.1918-1.7734,1.4237-1.6689Z"/>
    <path class="p" d="m24.8244,38.9669c.8279-1.3623,1.6558-2.7247,2.4838-4.087,1.0245.3768.3195.9446.0795,1.3366-.4971.8118-1.0752,1.5801-1.6826,2.3144-.1907.2305-.5815.2954-.8807.436Z"/>
    <path class="p" d="m35.2089,24.5022c-1.2625.7315-2.5251,1.463-3.7873,2.1946-.0943-.2345-.296-.6605-.2681-.6761,1.2125-.6788,2.443-1.3262,3.6866-1.9465.0415-.0207.2423.2781.3688.428Z"/>
    <path class="p" d="m44.4887,21.7336c-1.3644.2779-2.7288.5559-4.0932.8336.467-.9498,2.9528-1.9781,3.8014-1.5258.1715.0914.1983.4544.2918.6921Z"/>
    <path class="p" d="m28.1528,32.6925c-.2127-.4318-.4254-.8637-.6387-1.2949.7937-.2753,1.6826.5571,1.6883,1.5823.0067,1.2004-.4573,1.5841-1.6336,1.3512.1947-.3645.3893-.7289.5837-1.0934.1313-.0907.2629-.1815.3944-.2723-.1314-.091-.2628-.1819-.3941-.2729Z"/>
    <path class="n" d="m66.63,56.9892c.0067-1.5458.0135-3.0917.0205-4.6374.1634.2306.4562.4551.4672.6927.0504,1.0882.0508,2.1814-.0015,3.2694-.0112.2324-.3164.4506-.4862.6754Z"/>
    <path class="p" d="m42.0225,25.2849c.9967-.1896,1.9934-.3792,2.9899-.5694-.053,1.0601-.7901.8797-1.466.8093.001.0008-.0248-.0009-.0248-.0009-.5405.1766-1.1585.839-1.4991-.2391Z"/>
    <path class="p" d="m58.4038,41.7c.3842-.7273.7684-1.4546,1.1526-2.182.2481.1806.4961.3612.7442.5418-.4532.5437-.892,1.1006-1.3729,1.6186-.0844.091-.3448.0185-.5238.0215Z"/>
    <path class="p" d="m59.5778,38.1521c-.2133-.635-.4266-1.27-.64-1.905.4472.2818.8945.5637,1.3417.8455-.2339.3532-.4678.7064-.7018,1.0595Z"/>
    <path class="p" d="m39.5885,40.8487c.6412.6452,1.2823,1.2904,1.9235,1.9356-1.7726-.013-1.9185-.1599-1.9235-1.9356Z"/>
    <path class="p" d="m31.4037,29.679c.6236-.0968,1.2472-.1935,1.8706-.2906-.2647,1.1261-.9493,1.2992-1.8892.8021-.0656-.0347.0091-.3349.0186-.5116Z"/>
    <path class="p" d="m50.779,22.0433c-.4588-.1922-.9175-.3844-1.3763-.5768.2471-.2507.585-.7542.7243-.7042.4195.1505.7616.5166,1.1339.7985-.1607.1608-.3213.3216-.482.4824Z"/>
    <path class="p" d="m37.4628,23.2273c-.5693.3352-1.1387.6704-1.708,1.0057.1162-1.1052.5776-1.624,1.708-1.0057Z"/>
    <path class="p" d="m39.8823,35.9491c.0947.0078.1894.0156.2843.0233-.3047.5441-.6097,1.0884-.9146,1.6327-.7402-.8101-.6334-1.0908.6303-1.656Z"/>
    <path class="p" d="m45.5807,24.5308c.5455.0006,1.0909.0012,1.6363.0021-.335.2606-.6459.5778-1.0235.7377-.0848.0359-.4024-.4786-.6129-.7398Z"/>
    <path class="p" d="m30.6079,27.5197c-.0032.4359-.0063.8718-.0092,1.3074-.2798-.1514-.5598-.3025-.8399-.4536.283-.2846.566-.5692.849-.8538Z"/>
    <path class="p" d="m24.3129,32.9796c.0354.7764-.0821,1.4369-1.0816,1.4304.3607-.4763.7211-.9533,1.0816-1.4304Z"/>
    <path class="p" d="m15.5315,58.9088c-.0646-.3665-.1291-.733-.1937-1.0995.3313.2129.6626.4259.9939.6388-.2667.1535-.5335.3071-.8002.4606Z"/>
    <path class="p" d="m26.1966,31.5784c-.1924.1857-.3847.3713-.5768.5571-.1691.0031-.3385.0062-.5078.0092l.5883-1.0477c.1654.1605.3309.3209.4963.4814Z"/>
    <path class="p" d="m56.7694,49.2965c-.3634.0929-.7269.1857-1.0903.2786.1578-.2514.3156-.5029.4734-.7543.2056.1586.4112.3171.6169.4757Z"/>
    <path class="p" d="m55.1324,49.5648c-.2713.0304-.5427.0607-.8142.0914-.0918-.0208-.1835-.042-.2751-.0633.3445-.7354.7076-.7432,1.0893-.0281Z"/>
    <path class="p" d="m42.3055,43.0661c.2727.0161.5453.0321.818.0482-.1223.1523-.2447.3046-.367.4569-.1503-.1684-.3006-.3368-.451-.5051Z"/>
    <path class="p" d="m24.0188,39.7956c.072-.0206.1454-.0308.2197-.0309.1559.1195.3122.2392.4686.3589-.0648.0531-.1767.1606-.1875.1512-.1745-.1509-.3362-.3167-.5008-.4792Z"/>
    <path class="p" d="m39.2359,39.5184c.0356.2681.0713.5361.1069.8042-.1816-.1375-.3632-.275-.5448-.4125.146-.1305.2919-.2611.4379-.3916Z"/>
    <path class="p" d="m46.3972,21.4564c-.2719.0068-.5437.0136-.8156.0202.154-.1604.308-.3207.4619-.4809.1179.1536.2358.3072.3537.4607Z"/>
    <path class="n" d="m66.6252,51.5165c-.0867-.2682-.1733-.5364-.2597-.8045.0868.2682.1732.5364.2597.8045Z"/>
    <path class="p" d="m25.3661,32.6413c-.3536.1149-.7072.2298-1.0608.3448.2679-.1894.5357-.3789.8035-.5683.0858.0745.1715.149.2572.2235Z"/>
    <path class="n" d="m66.3466,49.8815c-.0652-.1779-.1304-.3558-.1948-.5337.0655.1779.1301.3558.1948.5337Z"/>
    <path class="p" d="m38.7899,22.9245c-.1932.0783-.3864.1566-.5796.2351.1932-.0782.3864-.1567.5796-.2351Z"/>
    <path class="n" d="m66.3607,58.3554c.0812-.1807.1624-.3615.2436-.5422-.0812.1808-.1624.3615-.2436.5422Z"/>
    <path class="d" d="m25.3661,32.6413c-.0857-.0745-.1715-.149-.2572-.2235.0003-.091.0014-.182.0031-.273.1694-.0031.3388-.0061.5079-.0093-.0848.1685-.1692.3371-.2537.5058Z"/>
    <path class="j" d="m36.3754,79.3949c-.018-.0981-.036-.1962-.054-.2943.0801.0777.1601.1554.24.2327-.0579.0329-.1199.0536-.186.0616Z"/>
    <path class="o" d="m16.9156,63.0175c-.0698-.0955-.1395-.1909-.2093-.2864.0698.0955.1395.1909.2093.2864Z"/>
    <path class="h" d="m43.5216,25.524s.0258.0016.0248.0009c-.001-.0008-.0248-.0009-.0248-.0009Z"/>
    <path class="l" d="m54.8355,36.2525c.4163-1.028,1.0845-.4499,1.6909-.2654.9002,1.0185,2.0594,1.9259,1.4632,3.5644-.539,1.4813-1.9573,2.4131-3.2979,2.1493-1.6584-.3263-2.3793-1.4229-2.2433-3.0815.7935-.0915,1.746.0681,2.1824-.3335.3746-.3446.1591-1.3309.2046-2.0334Z"/>
    <path class="l" d="m43.0803,36.0224c.5766-.0113,1.1532-.0225,1.7298-.0337,1.2587.8045,2.0112,2.0042,1.5203,3.4027-.2912.8296-1.1993,1.6581-2.0341,2.0376-1.8689.8495-3.6641-.7287-3.5113-2.9162,2.508.3609,3.1444-.3295,2.2953-2.4903Z"/>
    <path class="d" d="m28.1528,32.6925c.1314.091.2628.1819.3941.2729-.1316.0908-.2632.1815-.3944.2723.0003-.1817.0003-.3634.0003-.5451Z"/>
  </g>
</svg>