<?xml version="1.0" encoding="UTF-8"?>
<svg id="a" data-name="Layer 1" xmlns="http://www.w3.org/2000/svg" width="100" height="100" viewBox="0 0 100 100">
  <defs>
    <style>
      .b {
        fill: #6e93eb;
      }

      .c {
        fill: #2c8efd;
      }

      .d {
        fill: #29a0fe;
      }

      .e {
        fill: #0b3142;
      }

      .f {
        fill: #299efd;
      }

      .g {
        fill: #9b9ffb;
      }

      .h {
        fill: #2a9efd;
      }

      .i {
        fill: #99a0fb;
      }

      .j {
        fill: #2c9dfc;
      }
    </style>
  </defs>
  <path class="e" d="m31.3037,26.6582l-3.0125,4.7605c.7414,6.6176,18.5906,6.9522,38.6003,6.4932l4.5036-4.5059-2.033-2.5665-6.2024-2.4471-28.2274-3.4655-3.6287,1.7311Z"/>
  <g>
    <path class="g" d="m82.4611,39.4887c.0506.0946.1013.1892.152.2838.2911.5752.5822,1.1504.8732,1.7255.0447.0974.0894.1949.1341.2923.0599.279.1124.5597.1808.8366.3125,1.2657.4442,2.5309.0115,3.7984-.2959-.5543-.4859-1.217-.9143-1.6359-.5515-.5394-1.2522-.977-1.9618-1.2951-2.7219-1.2201-5.6183-1.8301-8.5482-2.2982l-.1157-.3481c-.058.0741-.1161.1482-.1741.2223-.7683-.0972-1.5366-.1945-2.3049-.2917-.0818-.0878-.1637-.1757-.2455-.2635l-.1868.2533c-.4344-.088-.8689-.1759-1.3033-.2639l-.2449-.4332c-.1093.1434-.2186.2868-.3279.4302-.3828-.0215-.7656-.0429-1.1484-.0644-.3018-.6317-.8521-.6912-1.6134-.1744-.2306-.0104-.4612-.0208-.6918-.0311-.0629-.1939-.1258-.3879-.1888-.5818-.2978.2219-.9244-.1519-.9665.5333-.3361-.0093-.6722-.0187-1.0083-.028-.4077-.6272-.8075-.6924-1.3081-.2135-.1824.0423-.3648.1215-.5471.1213-2.2157-.0026-4.4315-.017-6.6472-.0282-.244-.4384-.4858-.6236-.7202.0065-.144.0056-.288.0112-.432.0169-.1924-.051-.3848-.1019-.5771-.1529-.3265-.331-1.2225-.4105-1.4825-.1146-.0367.0418.0427.1856.0684.2823-.0095.0421-.0238.0826-.0428.1213-.2356.0008-.4713.0017-.7069.0025-.298-.1411-.596-.2822-.9834-.4656.0584.287.0893.4391.1203.5912-.2386-.0058-.4773-.0116-.7159-.0173.0941-.1844.1881-.3688.2822-.5532-.0821-.0553-.1642-.1107-.2463-.166-.1581.2303-.3162.4607-.4743.691-.0479.0215-.0958.043-.1437.0646-.1437.0039-.2875.0077-.4312.0116-1.1041.0891-2.2081.1783-3.3122.2674.0721-.1595.1441-.3191.2348-.52-.4769-.0461-.8321.0207-.9563.5184-.5284.0515-1.0569.1029-1.5853.1544-.1014-.1192-.1971-.3354-.3051-.3417-.6784-.0395-1.3596-.0393-2.0396-.0301-.0702.0009-.1385.147-.2519.276.5357.088.9877.1622,1.4396.2364-.0438.0198-.0877.0392-.1319.0579-.1478.0386-.2956.0774-.4433.1161-.6708.0731-1.3416.1462-2.0124.2192.1265-.1734.253-.3469.3698-.5069-.3283-.0482-.7135-.1132-.6623.4893-.287.0571-.574.1142-.861.1713-.1381-.2003-.2327-.5013-.4219-.5829-.7206-.3106-.6926.3581-.8762.7403-.2398.0434-.4795.0868-.7193.1301.0663-.2025.1325-.405.1988-.6074-.0604-.0313-.1208-.0625-.1812-.0938-.1042.2425-.2085.4849-.3127.7274l.0081.0505c-.0628.0315-.1257.063-.1885.0945-.2776.0366-.5551.0733-.8327.1099l-.1158-.0188c-.1007.0229-.2014.0459-.302.0688-.1439.0023-.2877.0046-.4316.0069-.0978.0426-.1956.0851-.2934.1277-.4767.0563-.9535.1125-1.4302.1688-.3976-.3405-.4305-.0574-.4435.2595l-1.7218.311c-.3666-.2397-.6782-.3326-.7276.2731-.7662.1994-1.5325.3989-2.2987.5983-.2997-.3239-1.1402.0362-1.3036.5586-.1906.0523-.3811.1046-.5717.1569-.0599-.0792-.1197-.1585-.1796-.2377.0105.123.0209.2461.0314.3691-.8659.4344-1.7615.8193-2.5901,1.3159-1.0256.6146-1.832,1.4346-1.9017,2.7384-.1773-.1051-.3546-.2103-.5319-.3154-.1067-.4303-.2133-.8607-.3199-1.291-.0005-.3843-.0012-.7685-.0018-1.1528.1544-.9112.3087-1.8225.4629-2.7338.1352-.3379.2705-.6758.4058-1.0137.0155-.0435.0245-.0884.0268-.1346.4229-.7727.8458-1.5454,1.2688-2.3181.6816-.9599,1.3631-1.9198,2.0444-2.8798.0096-.0276.0143-.056.0137-.0852.1812-.1652.3624-.3304.5437-.4956.1676-.24.3351-.48.5027-.72.1349-.0437.2972-.0537.3996-.1372.3674-.2995.7145-.6238,1.0696-.9383.3366.5934.8472-.2213,1.1667.2029-.0918-.3508-.1733-.6625-.2549-.9743.0364-.0198.0753-.0303.117-.0313.3295-.0982.8051-.0183.7341-.6033.1005-.1329.201-.2659.3015-.3988.0477-.0468.0955-.0936.1432-.1404.0163-.0327.0233-.0672.0209-.1041.4735-.3477.9471-.6951,1.4207-1.0424.203.1218.3918.2879.6112.3588,2.8398.9175,5.6442.8466,8.3853-.3756.9931-.4428,1.6482-1.6005,1.3487-2.4164-.3094-.8429-1.0584-1.2679-1.8294-1.6193-1.7593-.8019-3.6331-.7504-5.5036-.7081.1481-.577.2963-1.1541.4444-1.7311.0977-.4802.1955-.9604.2932-1.4407.0856-.4328.1713-.8657.2569-1.2985.0087-.0969.0174-.1938.0261-.2907.1958-.526.3915-1.0521.5872-1.5781.0426-.0985.0852-.1969.1278-.2953.2523-.3213.5045-.6426.7567-.964.1856-.1513.3711-.3025.5566-.454.4319-.242.8639-.4839,1.2959-.7257.2859-.1018.5717-.2035.8576-.3052.1014-.0355.2028-.0711.3042-.1066.1383-.019.2766-.038.4149-.0568.9132-.0907,1.8263-.1816,2.7395-.2725.24.0004.48.0008.72.0013.9608.1447,1.9217.2894,2.8825.4341.5733.1567,1.1466.3133,1.7199.4697.4837.2239.9674.448,1.4511.6721.2336.1051.4671.2103.7008.3153.5701.3805,1.1551.7407,1.7064,1.1466.7471.55,1.4684,1.1349,2.2008,1.7049.0031.4344.1673.5878.5693.3265.5751.3877,1.1503.7755,1.7254,1.1632.0441.0417.0883.0833.1326.1249,1.1133.7163,2.2264,1.4328,3.3395,2.1492.0959.0483.1919.0966.2878.1449.8226.3907,1.6451.7815,2.4677,1.1722l1.5515.6881c.2454.1006.4907.2012.7361.3018.3345.1462.6689.2925,1.0035.4386-.1393.9448.3186,1.7374,1.2303,2.1071,1.3946.5655,2.8508.7259,4.3392.609.2167-.017.4222-.1758.6328-.269.6879.2432,1.3855.4625,2.0614.7354.9804.3959,1.9451.8307,2.9165,1.2489l1.3479.8881c.6279.3413,1.2558.6825,1.8837,1.0238.1428.098.2857.196.4286.2939.4829.3793.9656.7587,1.4484,1.1381.0974.0889.1948.1778.2921.2669.9067,1.0181,1.8135,2.036,2.7203,3.054Zm-20.0224-7.9298c-1.3483-.0725-2.6976.1318-3.9039.9453-.8749.59-.9539,1.3658-.1892,2.0822.1904.1783.3979.3696.6339.4632,2.368.9393,4.7472,1.1053,7.0619-.1226,1.345-.7135,1.2906-1.8232-.0215-2.6017-1.095-.6497-2.2767-.8152-3.5811-.7664Zm-16.4008,8.1792c-.004-.0342-.0081-.0685-.0121-.1027-.0996.0146-.1993.0292-.2989.0437.0034.028.0068.0561.0103.0841.1003-.0084.2005-.0167.3008-.0251Z"/>
    <path class="d" d="m52.3599,45.4502c.1338,1.2778.2866,2.554.4307,3.8308.4751-.0623.8677.1453.9111.592.0513.5286.0322,1.123-.1694,1.5981-.1562.3674-.5361.5852.0625.8547.0854.0383.1899.2444.1812.2522-.5449.4727-.2148,1.1257-.3613,1.6753-.0103.0383-.1265.0483-.1934.0715.0005.1921.0015.384.002.5762.1851.2104.5161.4128.5283.6328.0356.6353-.0444,1.2791-.1118,1.9163-.0127.1191-.1777.2224-.2725.333.0005.2402.0005.4805.001.7207.1431.3936.2788.7905.4316,1.1804.2104.5364.4731,1.0554.6396,1.6045.1362.449.1821.9285.2358,1.3982.041.3618-.1021.825.0747,1.0742.3545.4998.0205.8093-.2324,1.0217-.1548.1301-.5664-.0447-.8623-.0825,0,.3843.0005.7683.0005,1.1526.1587-.0278.3174-.0557.5664-.0991,0,.5039.0171.9707-.0039,1.4358-.0278.6013-.0972,1.2007-.1211,1.802-.0059.1426.0649.3848.1592.4189.5498.1985.4863.6716.3501,1.0049-.0781.1907-.5269.2295-.8086.3367v2.0183c.2754.0879.7891.1782.7886.2632-.0073.6272.0347,1.3291-.2319,1.8604-.3364.6692-.3125,1.272-.1553,1.9219.0703.291.2256.5615.3735.9175-.272.0347-.4507.0574-.6304.0803-.1064.2949.2695.7922-.3633.8665l-.0254,2.7354c.1777.0005.3555.0005.5332.0007.0479-.6504.0977-1.3008.1431-1.9514.0161-.2292.022-.459.0957-.6873.6924,1.5999.1377,3.2258.0059,5.0063.2075-.1702.2715-.2144.3252-.2688.0479-.0483.0845-.1077.2026-.2612.1865.8228.0483,1.5134-.1963,2.1973v1.0088c.0752.0591.1499.1184.2251.1775-.0752.0369-.1499.074-.2251.1108l-.2881.7205c.1895.0293.3789.0588.5688.0884.0093.0684.019.1367.0288.2048-.1992.0945-.3984.1887-.5977.2832.1475.7551.3252,1.4788.2095,2.2917-.0835.5854.2637,1.2271,1.1138,1.0447v2.1113c.0098.0122.1357.1643.2617.3164l-.3164.7332c.0093.092.0186.1838.0278.2756.0322.0088.0649.0156.0977.0208.373.0217.7461.0437,1.2261.0718-.0898.2163-.0615.4468-.0264.677.2764.0579.5493.1318.812.2354.2793-.2964.5972-.5542.9419-.7722l-.2285-.7874c-.0283-.0051-.0557-.0127-.0825-.0225-.1318-.083-.2788-.1492-.3926-.2527-.1816-.1653-.3403-.3555-.5093-.5349-.084.0437-.168.0874-.2524.1311,0-.8372-.0122-1.6746.0107-2.511.0044-.1575.1484-.3113.228-.4666-.0415-.2297-.0835-.4592-.125-.6887-.0454-.1907-.0903-.3811-.1353-.5718-.0005-.0974-.0015-.1951-.0024-.2927l-.1128-.4351c-.0088-.1912-.0171-.3823-.0254-.5735-.3306-.0481-.6606-.0959-.9912-.144-.0874-.0837-.1748-.1672-.2622-.2507l.2622-.1816.2886-.2881.144-.2883c-.6211-.7446-.5874-.8845.4155-1.7292-.0015-.3362-.0024-.6726-.0034-1.0088-.2109-.1877-.4224-.3755-.7456-.6628.3208-.0249.5342-.0413.7471-.0579.0156-.0476.0317-.0952.0474-.1431.0317-.1831.0635-.366.0952-.5491-.0801-.0903-.1606-.1807-.2407-.2708.0806-.0632.1606-.1265.2412-.1897.0146-.0959.0288-.1917.0435-.2876-.0049-.0876-.0103-.1755-.0156-.2632.0435-.0562.0864-.1125.1299-.1687.0112-.1924.0225-.3848.0332-.5769-.0059-.0869-.0122-.1738-.0186-.261.0479-.0579.0957-.1157.1431-.1736l.0176-.5647c-.0562-.4358-.1128-.8713-.1694-1.3071l-.144-.7205v-.144c.0483-.0481.0962-.0959.144-.144.2397-.0481.4795-.0959.7192-.144v-3.6028c-.0957-.186-.2671-.3691-.2739-.5583-.0298-.8379-.0117-1.6775-.0132-2.5166-.001-.5437.0913-1.0999-.439-1.5132-.126-.0981-.1289-.396-.1313-.6028-.0132-.9587.0391-1.9204-.0205-2.8757-.0454-.7288.2251-1.1819.8784-1.4441-.0005-.3364-.001-.6726-.001-1.0088-.2676.1433-.5308.3933-.8042.4048-.3931.0168-.7939-.1396-1.2466-.2336.0679-.6345.1294-1.2107.1909-1.7866-.0898-.1826-.1802-.3652-.2705-.5479-.8872.217-.8716.2166-.9028-.7278-.0107-.325-.1104-.6497-.1904-.9692-.1299-.5181-.2642-1.0286.377-1.373-.4395-.4746-.5327-.9353-.1919-1.4961.1528-.2505.1084-.6211.1406-.8494.2891-.0737.5869-.1499.9419-.2405.0376.0571.1235.188.21.3186.0527-.0989.1055-.1975.1587-.2964-.0469-.1389-.0938-.2778-.1401-.4167.0479-.0962.0962-.1924.1445-.2883.3066-.2598.6367-.6267.7227.1536.0498-.0117.1001-.0234.1504-.0349.1411-.3345.3896-.6643.4043-1.0044.0503-1.1738.0054-2.3516.0322-3.5271.0049-.2122.1782-.4204.2739-.6309.0161-3.0894.0312-6.1785.0562-9.2678.0005-.0652.1157-.1294.272-.2932.0474.2705.1001.4365.1025.603.0522,3.7324.1006,7.4646.145,11.1973.0098.7905.0024,1.5815.0029,2.3723.0381.2981.0762.5964.1138.8948,0,.0002.0078-.0178.0078-.0178.0498.0635.1001.1272.1499.1907.0542.0759.1084.1519.1626.228l.2329-.1794c.0215.0181.043.0361.064.0542-.0635.0962-.127.1921-.1904.2883l.6289,1.7173c.1484.1724.2793.3645.4487.5127.3745.3274.3159.6501.1011,1.0481-.1343.2483-.2427.5881-.1846.8467.124.552-.1094,1.0933-.6929,1.3247l-.4292.7234c.1021.0981.2046.196.3071.2939v.7886c-.0986.0137-.1973.0273-.2954.0408-.0459-.2756-.0913-.5515-.1372-.8274-.0405-.0012-.0811-.0017-.1216-.0015-.0605.0828-.1216.1655-.1821.2485-.043.4885-.1211.9771-.1226,1.4658-.0103,3.2712-.0044,6.5425-.0034,9.8135.4429.2888.4443.5771-.0015.8647v.4321c.4639.3843.4639.7686,0,1.1528.0298.3994.0825.7991.0771,1.198-.002.1318-.1543.2617-.2378.3923.168.4395.3359.8787.5039,1.3179.1167.3752.2329.7505.3496,1.1257.064.1926.1279.385.1914.5774.4995.0732.9976.1318.7432.8721-.0356.1035.1753.2708.2007.4207.061.3564.4053.7737-.2041,1.0283-.1108.0461-.1689.3215-.1753.4941-.022.55-.0078,1.1016-.0078,1.6526.0957.0959.1914.1919.2876.2878.4468.2883.4468.5764,0,.8645l-.2876.1443c.272.6946.6987,1.3748.1592,2.1379.1562.1333.2881.2456.4517.3855-.5444.4167-.6909.8254-.1821,1.3533.146.1514.103.4846.147.7346.1621.4644.334.9297-.1157,1.3413l.0117.2498c.04.0461.0801.0923.1206.1382.2075.2373.4146.4741.6938.7932.4468-.0212.6323.0959.5708.5007.397.0442.8037.1238,1.2241.2727.0269-.1047.0669-.2097.1016-.3149-.0581-.6543-.1152-1.2991-.1411-1.9395-.0083-.2002.1851-.4084.2861-.613-.0117-.1428-.0234-.2856-.0352-.4287-.0366-.0979-.0728-.1958-.1089-.2937-.0156-.238-.0312-.4763-.0469-.7141-1.1094-.1021-1.187-.2-1.126-1.2493.0283-.4907.0049-.9844.0049-1.5208.064.0164.2134.0544.4419.1125-.2861-.9023-.8164-1.7725.1196-2.5308.0146-.0481.0288-.0959.0435-.1438l-.042-.4329h-.2739c-.1787.0928-.3574.1858-.5381.2795-.2373-.5547-.1733-.7085.394-1-.0679-.9546-.208-1.9106-.1821-2.8625.021-.7803.2349-1.5559.3789-2.3306.0107-.0583.1475-.093.2261-.1389l-.0088-1.1528c-.1333-.1118-.3706-.2126-.3838-.3374-.0854-.7974-.1221-1.5996-.1743-2.4004-.6294-.5522-.6294-1.2341,0-1.5852v-2.45c.0137-.6704-.1748-1.3936.4775-1.8994.084-.0649.207-.0798.312-.1182l.0615-.2834c-.0298-.0068-.0601-.0125-.0903-.0171-.0024-.0459-.0049-.0916-.0073-.1375-.001-.094-.002-.1877-.0034-.2817-.8003-.6074-.9097-1.3086-.3442-2.2107-.5405-.8567-.5396-.8633.1499-.96,0-.3364,0-.6726-.0005-1.009-.52.0068-.5986-.2122-.3823-.6604.1655-.3425.4038-.7258-.0288-1.0688-.126-.1763-.3721-.3621-.3589-.5273.0889-1.1235.2329-2.2429.3589-3.3635-.4883-.6155-.4038-2.134.144-2.5938.0962-.0479.1919-.0957.2876-.1436.042-.0002.084-.0005.1265-.0005.0146-.0481.0298-.0962.0449-.1443,0-.0974.0005-.1946.0005-.2917-.02-.0435-.0229-.0879-.0083-.1333-.2886-.1267-.5767-.2534-1.0713-.4702.3682-.1934.5664-.2976.7646-.4016l.2871.0007c.0449-.0952.0903-.1904.1357-.2856.3232-1.4617.6113-2.9324.9775-4.3833.7246-2.8735,1.8896-5.5479,3.7153-7.9097.1548-.2002.2417-.4531.3599-.6816-.0967-.0437-.1938-.0876-.291-.1313l-1.1484-.0645c-.5376-.0583-1.0752-.1167-1.6133-.1748-.2305-.01-.4614-.0205-.6919-.0308-.3853-.0161-.77-.0322-1.1553-.0483-.3359-.0095-.6724-.0188-1.0083-.0281-.436-.0713-.8721-.1426-1.3081-.2136-.1821.0425-.3647.1216-.5469.1213-2.2158-.0027-4.4316-.0168-6.6475-.0283-.2397.0022-.48.0046-.7202.0066-.1436.0056-.2876.0112-.4316.0168-.2461.1697-.4121.2769-.3491.7043.229,1.5532.3315,3.1245.4951,4.688Z"/>
    <path class="d" d="m56.3402,84.6942c-.0402-.0171-.0891-.0564-.1181-.045-.0286.0112-.0371.0737-.0544.1137.0401.0172.089.0566.1177.0452.0288-.0115.0375-.0736.0548-.1139Z"/>
    <path class="d" d="m60.0833,57.2473c.0072-.0204.0193-.041.0187-.0612-.0002-.0068-.0328-.0127-.0506-.0189-.0072.0204-.0193.041-.0187.0612.0002.0069.0328.0127.0506.019Z"/>
    <path class="b" d="m62.7236,53.6074c.3233-1.4617.6114-2.9324.9774-4.3833.7248-2.8734,1.8899-5.5477,3.7155-7.9097.1548-.2003.2416-.4531.3599-.6815.094-.0428.1879-.0857.2819-.1285.4344.088.8689.1759,1.3033.264.1441.0035.2882.0068.4323.0101.7683.0972,1.5366.1945,2.3049.2917.0966.0419.1932.0839.2898.1259,2.9298.4682,5.8263,1.0781,8.5482,2.2982.7096.3181,1.4103.7557,1.9618,1.2951.4283.4189.6183,1.0816.914,1.6358-.032,1.2999-.9249,2.0266-1.8895,2.6059-1.1219.6738-2.3325,1.1999-3.5046,1.7902-.1841.0658-.3681.1315-.5522.1972-.8685.2791-1.737.5583-2.6056.8374-.2371.0593-.4743.1185-.7114.1777-1.6376.3776-3.2753.7552-4.9129,1.1328-.3316.0556-.6632.1112-.9948.1667-1.5371.2376-3.0742.4753-4.6113.7129-.4154.0578-.8308.1155-1.2462.1732-.0202-.204-.0403-.4079-.0604-.6119Z"/>
    <path class="b" d="m32.1883,42.0864c.1439-.0023.2877-.0046.4316-.0069.1023.2227.1611.4827.3146.6614.6069.707,1.2435,1.3885,1.8691,2.0794l.1194.1261.0095.0098c.0445.0469.0891.0937.1336.1406.9015,1.268,1.8143,2.5516,2.1538,4.0911.3983,1.8062.6601,3.6424.9811,5.4656-.5174.0421-1.0348.0842-1.5522.1263-.0956-.0071-.1912-.0142-.2868-.0213-.097-.0272-.194-.0544-.291-.0817-.1425-.0087-.2851-.0174-.4276-.0262-.5293-.0523-1.0586-.1045-1.5879-.1567-.6187-.0684-1.2374-.1368-1.8562-.205-.1975-.0309-.3949-.0619-.5924-.0929-.5197-.0764-1.0394-.1527-1.5592-.2286-1.1587-.2246-2.3173-.4497-3.4758-.6748-.4268-.1061-.8536-.2123-1.2806-.3181-.9215-.3083-1.8428-.6169-2.7642-.9255-.0405-.0271-.0851-.039-.1338-.0356-.8147-.4371-1.6295-.8743-2.4442-1.3114,0,0,.002.004.0019.0041-.2374-.2388-.4746-.4778-.7119-.7168-.0644-.0914-.1289-.1828-.1932-.2742-.0959-.3297-.192-.6594-.288-.989.0697-1.3037.8762-2.1237,1.9017-2.7384.8286-.4966,1.7242-.8815,2.5901-1.3159.0494-.0438.0988-.0876.1482-.1314.1906-.0523.3811-.1046.5717-.1569.4345-.1862.8691-.3724,1.3036-.5586.7662-.1994,1.5325-.3989,2.2987-.5983.2425-.091.485-.182.7276-.2731.5739-.1037,1.1479-.2073,1.7218-.3109.1478-.0865.2957-.173.4435-.2596.4767-.0563.9535-.1125,1.4302-.1687.0978-.0425.1956-.0852.2934-.1278Z"/>
    <path class="h" d="m43.2524,85.3066c-.2178,1.3508-.436,2.7017-.6538,4.0522-.0684.1865-.1362.373-.2046.5593-.0029.0962-.0063.1926-.0093.2888-.0898.2881-.1797.5762-.2695.864-.6938,2.0188-1.4038,4.0322-2.0762,6.0579-.0356.1077-.0664.2168-.1011.3247.1509.2676.2886.5527.4019.8667.0073.0205.0176.0459.0259.0674.6631-.4099,1.3389-.6304,2.001-.7083.5835-1.5718,1.1094-3.1685,1.54-4.7859.3428-1.2891.4458-2.6602.5083-4.0012.083-1.78.0303-3.5667.0166-5.3501-.0034-.4688-.0762-.9373-.1167-1.4055-.0132-.2385-.0264-.4768-.0391-.7151-.0352-.146-.0703-.292-.105-.4377-.0049-.1938-.0098-.3875-.0146-.5811-.0933-.5527-.1821-1.1064-.2827-1.6577-.0312-.1716-.0952-.3374-.144-.5056-.2354.135-.4678.2756-.7065.4043-.3774.2034-.7529.3787-.897-.2537l-.144-.4324v-1.3665c-.2114.3052-.3071.4429-.394.5679-.2227-.2605-.4409-.5164-.6592-.7722.0791.2295.1587.4587.2383.6882.0249.054.0503.1079.0752.1621.3457.811.6909,1.6221,1.0366,2.4331.0454.0537.0903.1074.1357.1609.0254.0442.0508.0881.0767.1321.0244.1475.0493.2949.0742.4424.2295,1.1055.459,2.2112.6885,3.3167,0,.1919,0,.3838.0005.5757l-.001.4329c-.0005.1919-.0005.3838-.001.5757Z"/>
    <path class="h" d="m60.7977,17.0135c.0254-.1461.0507-.2922.0761-.4383.0605-.0689.1376-.129.179-.208.6601-1.2591,1.2629-2.5524,1.9965-3.7668.3194-.5288.3782-.9154.0237-1.3852-.0616-.1861-.1231-.3722-.1847-.5583-.0103-.5271-.0206-1.0542-.0309-1.5814.1168-.3787.2336-.7575.3504-1.1362.1168-.1794.2316-.3601.3508-.5379,1.0347-1.5431,2.8064-2.1412,4.8018-1.6221,1.4445.3758,2.6269,1.8099,2.7126,3.4923.0403.7924-.1807,1.598-.2833,2.3976-.053.0921-.106.1842-.159.2763-.2363.2902-.4726.5804-.709.8707-.1056.09-.2112.18-.3168.2701-.4692.2393-.9385.4786-1.4078.7179-.2361.0178-.4722.0357-.7083.0535-.2885.0486-.577.0972-.8655.1458-.0943-.0102-.1885-.0204-.2828-.0306-.6377-.2813-1.2754-.5627-1.9491-.8599-.0837.1043-.2163.217-.2827.3603-.7606,1.6405-1.5136,3.2845-2.2623,4.9304-.1561.3431-.2859.6982-.4278,1.0477-.2273.0875-.4546.175-.6982.2687-.4259-.4952-.4249-.4999.0964-.7721.0542-.4501.1188-.8216.1311-1.1949.0034-.1033-.1485-.2117-.2292-.3178.0016-.0893.0032-.1785.0048-.2678.0247-.0514.0495-.1027.0743-.1541Z"/>
    <path class="h" d="m89.394,15.2655c.1281.0827.2562.1655.3844.2481.8369.6183,1.3876,1.4445,1.7482,2.4086-.0385.8462-.0771,1.6925-.1156,2.5387-.5849,1.2889-1.5206,2.1927-2.884,2.6268-.8121-.0216-1.6241-.0432-2.4362-.0647-.9518-.3949-1.7167-1.0214-2.3087-1.8624.0032-.0508-.0155-.0915-.0562-.1221-.178-.8252-.356-1.6503-.5339-2.4755-.057-.0367-.1141-.0733-.1711-.11-.0398.0065-.077-.0007-.1116-.0213.2088-.224.4175-.448.6271-.6727-.7045-.3315-.7471-.2955-.7922.6638-.0691.0003-.1381.0006-.2072.0009-.3754-.5232-.8383-.5121-1.3749-.2642-.1941.0897-.4389.0694-.6606.0993-.0269-.0693-.0538-.1387-.0807-.208.2937-.2764.5873-.5528.881-.8291.391-.0192.782-.0386,1.1729-.0579.2926.5546.5755.0487.8625-.0079.0498.0029.0996.0059.1494.0088.107.0666.2141.1332.3211.1998-.0065-.0977-.0129-.1954-.0194-.2931l.0341-.0593c.207.1417.414.2833.6179.4229q.3978-.51.0879-1.3613l.0485-.0468c.8206.3964,1.2294.1203,1.1794-.7965v.0159c.0581-.0331.116-.0662.174-.0992.0718-.0125.1436-.0249.2154-.0374.2291.036.4689.13.6843.0907.1953-.0356.3642-.2165.5447-.3333.0477-.0183.0954-.0366.1431-.0549.6255.1513,1.2509.3025,1.8764.4538Z"/>
    <path class="d" d="m11.1438,19.9035c-.2394-.1043-.4788-.2087-.7181-.313-.1724-.1267-.3432-.2559-.5176-.3798-1.3776-.9788-2.2728-3.3575-1.221-5.0938.318-.0343.6359-.0687,1.0162-.1098v-1.1844c.0512-.0479.1024-.0959.1537-.1438.7679-.0762,1.6399.6769,2.2961-.2885v-.2881c.0002-.0895.0003-.1789.0005-.2684.4321.0037.8642.0074,1.2963.0111.0961.2299.1923.4597.2884.6896.0591.0749.1181.1499.1772.2248.0369-.0748.0738-.1497.1106-.2245l.1446-.0007c.1519-.058.3038-.1161.4556-.1741l.0041-.0016c-.1224.7759.1937,1.5515.723,1.5582.6248.0079.5225.4768.4637.7232-.2522,1.0565.0795,1.6441,1.1539,1.8637,0,0,.027-.001.027-.001.0028.0937.0057.1875.0085.2812.0673-.0327.1346-.0653.2019-.098.1717.2163.3434.4326.5147.6487-1.0871-.1675-2.1371.43-2.6518,1.48-.3349.0563-.6014.1439-.8656.1372-.6893-.0173-.9389.3294-.8884.97-.7245-.0061-1.4489-.0121-2.1734-.0182Z"/>
    <path class="d" d="m41.9821,77.9578v-1.3664c-.2118.305-.3074.4426-.3943.5678-.2224-.2605-.4408-.5164-.6592-.7723-.2713-.582-.5425-1.1639-.8138-1.7459-.1041-.6235-.2082-1.2471-.3122-1.8706-.0478-.5767-.0956-1.1534-.1434-1.7301-.0494-.192-.0988-.3839-.1482-.5759l-.0053-2.0179c-.0002-.336-.0004-.6719-.0005-1.0079-.0025-.6729-.005-1.3458-.0076-2.0188-.0455-.1918-.091-.3836-.1365-.5753-.096-1.1531-.192-2.3062-.288-3.4593-.0036-.2878-.0071-.5756-.0107-.8634-.0406-.2886-.0812-.5772-.1218-.8657-.0091-.1459-.0182-.2918-.0274-.4376-.0333-.0476-.0667-.0952-.1001-.1428-.0481-.3829-.0963-.7659-.1444-1.1488-.1559-1.0912-.3118-2.1824-.4678-3.2736-.321-1.8232-.5828-3.6595-.9811-5.4656-.3395-1.5395-1.2523-2.8231-2.1538-4.091-.0445-.0468-.0891-.0937-.1336-.1406,0,0-.0095-.0098-.0095-.0097-.0398-.042-.0796-.0841-.1194-.1262-.6256-.6909-1.2621-1.3725-1.8691-2.0794-.1535-.1788-.2123-.4388-.3146-.6614.1007-.0229.2014-.0459.3019-.0685-.0002.0003.056.0216.056.0216l.06-.0032c.2776-.0366.5551-.0733.833-.1099.063-.0315.1256-.063.1882-.0945,0,0-.0081-.0505-.0081-.0505.0984-.0087.1967-.0175.2951-.0262.2398-.0434.4795-.0868.7193-.13.4327-.0524.8654-.105,1.2981-.1575.287-.0571.574-.1142.861-.1711.0975.006.195.0116.2925.0173.6708-.0731,1.3416-.1462,2.0124-.2193.0016.233.0033.466.0049.699-.3091.3919-.0451.5009.285.5773.0494.5761.0987,1.1523.1481,1.7284-.4794.0065-.6128-.1676-.4888-.6699.1971-.7982-.3352-1.4656-1.0318-1.3243-.8848.1796-1.7351.2487-2.5037-.2875-.4344.3796-.6579.7506-.4662,1.3294.1117.3374-.0245.7526.0663,1.1028.0693.2674.2806.5336.4978.7201.5664.4864,1.0556,1.0186,1.344,1.727-.061-.0153-.1358-.0336-.2107-.052-.0422.1696-.0844.3392-.1266.5088.081.0196.162.0392.243.0588.036-.1709.072-.3418.0942-.5156.387-.0011.6315.1049.4933.5949-.0753.2668-.0531.5612-.0749.8431-.5382.1421-.5911.3813-.1441.7205.4332.6354.8665,1.2708,1.2041,1.7659-.1435.4718-.2415.794-.3394,1.1162-.0674.2247-.1347.4494-.2021.6741.0623.0088.1247.0176.187.0264.0051-.0894.0102-.1788.0152-.2682.3841-.0226.6218.141.5694.5426-.0919.7045-.2193,1.4043-.3443,2.1839.1594.0845.3507.2467.5653.2879.5734.11.826.4402.792,1.0027-.0243.4016-.2426.9015-.0775,1.1838.4829.8256-.04,1.2608-.5192,1.7084-.3935.3675-.2525.6986-.1275,1.0643.1209-.152.0999-.3456.1839-.4662.1181-.1695.3141-.2846.4769-.423.0627.1822.1569.3607.1792.5477.0214.1796-.0197.3704-.0544.5523-.0897.4695-.0579,1.041-.3219,1.3781-.3218.4111-.3486.7358-.217,1.1722.0908.3012.2731.6637.1818.9139-.249.682-.2597,1.2339.3003,1.5351-.1098.56-.1868,1.0229-.2926,1.479-.2792,1.2035.5966,2.2966.3218,3.5025-.0794.3486-.0939.714-.1166,1.073-.0181.286-.0037.5741-.0037.9584.2444-.2783.3994-.4547.5534-.6301.8536.7086.8666,1.5227.5868,2.4373h-.8867c.1695.2709.2569.4601.3886.6103.225.2564.4851.4818.7158.7336.1153.1258.1826.3889.2987.4061.9199.1359,1.0238.6836.9047,1.4806-.0642.4294-.1688.6157-.5988.5603Zm-3.6547-27.1282c-.0402-.0171-.0891-.0564-.1181-.045-.0286.0112-.0371.0737-.0544.1137.0401.0172.089.0566.1177.0452.0288-.0115.0375-.0736.0548-.1139Zm-.9964-3.0733c-.0173.04-.0346.08-.0519.1201.0402.0172.089.0565.118.0452.0286-.0111.0371-.0737.0544-.1137-.04-.0172-.0801-.0345-.1205-.0516Zm-3.328-5.3524c-.016-.0406-.0224-.1033-.0508-.1158-.0283-.0125-.0788.0253-.1195.0411.016.0407.0222.1032.0506.1159.0281.0126.0787-.0251.1196-.0412Z"/>
    <path class="f" d="m24.6419,34.5099c-.3548.315-.7019.6393-1.0693.9388-.1024.0835-.2648.0935-.3995.1371-.0305-.6697-.0612-1.3394-.0919-2.009-.0005-.145-.0011-.2901-.0016-.4351-.0007-.1942-.0013-.3884-.002-.5827.0027-.2862.0055-.5724.0082-.8586-.0893-.4818-.1785-.9637-.2678-1.4455-.0101-.1919-.0202-.3838-.0304-.5757-.0375-.0499-.075-.0999-.1125-.1498-.0096-.1408-.0191-.2816-.0287-.4224-.1851-.6727-.3703-1.3454-.5554-2.0181-.0644-.2006-.1289-.4012-.1938-.6016-.4381-1.0109-.8757-2.022-1.3133-3.0331-.0685-.0869-.1371-.1737-.2056-.2606-.434-.7249-.8679-1.4497-1.3019-2.1746-.0394-.0621-.0788-.1242-.1182-.1862-.2046-.3115-.4091-.623-.6136-.9346-.0356-.0505-.0712-.1009-.1068-.1514-.0745-.0918-.1491-.1836-.2236-.2754.0802-.0648.1604-.1296.2406-.1944-.0646-.038-.1291-.0761-.1937-.1141-.0721-.294-.1436-.5897-.4745-.1727-.2031-.2206-.4062-.4412-.6093-.6619.5042-.136.8683-.3793.7563-.9873.419.4265.838.853,1.257,1.2795-.1658.1328-.3316.2656-.5161.4095.0049-.0012.0285-.0134.0521-.0257-.0523-.1225-.1046-.245-.1569-.3675-.04.0206-.0801.0411-.1201.0617.0687.1142.1375.2284.2249.3315.3441.0372.6695.0855.9949.1339,2.7595,3.8002,4.6462,7.9508,5.0906,12.6804.0269.3827.0538.7654.0807,1.1481.0101.4872.0203.9743.0305,1.4614l-.0295.0559Z"/>
    <path class="j" d="m81.3018,17.2215c-.2937.2764-.5873.5528-.881.8293.0269.0693.0538.1387.0807.208.2217-.0299.4666-.0097.6606-.0993.5366-.2479.9995-.2591,1.3749.2642-.02.017-.0385.0355-.0554.0556-.4347.0789-.8695.1578-1.3042.2367-.6746.336-1.3492.672-2.0237,1.0079-.1112.1113-.2225.2226-.3327.3347-.2942.2708-.5894.5408-.8846.8107-.0311.037-.0621.0739-.0932.111-.2052.2887-.4632.5534-.6057.8702-.4372.9725-.8301,1.9648-1.2403,2.9495-.1943.0424-.3886.0848-.5829.1272l.057-.6401-.2018-.0091v.7935c-.2243.0481-.4486.0963-.6729.1444.0901-.3845.1803-.7689.2704-1.1534.4435-.1194.7329-1.0236.5123-1.6005.4641-.8342.9282-1.6684,1.3922-2.5026,0,0,.0119-.0209.0113-.0212.9329-.6991,1.8664-1.3979,2.7999-2.0968.151.1033.302.2065.4531.3098.0301-.0464.0602-.0927.0904-.1391-.0855-.1046-.1709-.2092-.2564-.3138.4774-.1589.9548-.3178,1.4322-.4767Z"/>
    <path class="f" d="m75.4142,24.927c.1943-.0424.3886-.0848.5829-.1272-.1455,1.5875-.3563,3.1726-.4168,4.7634-.0525,1.3796.0652,2.7657.1077,4.1489-.4493-.296-.8986-.5921-1.3479-.8881.0183-2.1999.0365-4.3998.0547-6.5997.0672-.3362.1344-.6724.2016-1.0086.2243-.0481.4486-.0963.673-.1444.0483-.0481.0965-.0962.1448-.1443Z"/>
    <path class="f" d="m61.4185,19.4515l-.2454,1.8738c.0027.05.0054.1.0081.15-.0654.3821-.1307.7642-.1961,1.1463-.3861-.0031-.7722-.0061-1.1583-.0092-.0406-.3476-.1678-.7113-.1066-1.0399.2377-1.2755.5353-2.5397.8106-3.8082.0133-.0631.0265-.1262.0397-.1892.0276-.0482.0552-.0965.0828-.1447,0,0,.0652.0049.0652.0049.0807.1061.2326.2145.2292.3178-.0123.3733-.0769.7448-.1311,1.1949-.5213.2722-.5223.277-.0964.7721.2436-.0938.4709-.1812.6982-.2687Z"/>
    <path class="f" d="m62.9884,90.3515c-1.1096-.102-1.1871-.1999-1.1263-1.2491.0284-.4907.0049-.9845.0049-1.5209.0643.0164.2137.0545.442.1126-.2862-.9024-.8162-1.7725.1197-2.5308.0142.1438.0285.2877.0428.4315.0784.7721.1567,1.5443.2351,2.3164.0468.3847.0935.7694.1403,1.1542.0472.4287.0944.8574.1416,1.2861Z"/>
    <path class="h" d="m59.8269,22.6125c.3861.0031.7722.0061,1.1583.0092.0003.6246.0006,1.2492.0009,1.8737-.0827.0609-.1653.1218-.248.1827.0827.083.1655.166.2482.2491.0077.0952.0154.1904.0231.2856.0366.1929.0732.3858.1098.5787.0035.2404.0069.4808.0104.7212-.3107.0567-.6213.1133-1.086.1981.1152-.1796.2163-.2716.2346-.3778.0618-.3593.2164-.999.1184-1.0425-.7951-.3531-.4744-.9945-.5237-1.5551-.0247-.2813-.1879-.5504-.2885-.825.0426-.0953.0852-.1906.1278-.2859.0382-.0043.0765-.0082.1148-.0119Z"/>
    <path class="j" d="m16.5092,14.8394c.1536.5551.3072,1.1103.4613,1.6648-1.074-.2203-1.4057-.8078-1.1535-1.8643.0588-.2464.1611-.7153-.4637-.7232-.5293-.0067-.8454-.7822-.723-1.5582.3163.2142.6326.4284.9489.6426,0,0-.0059-.0017-.0057-.0018.2966.5193.593,1.0387.8894,1.5581.0154.094.0308.188.0463.282Z"/>
    <path class="f" d="m59.5844,22.9103c.1006.2746.2638.5437.2885.825.0492.5606-.2715,1.2021.5237,1.5551.098.0435-.0567.6833-.1184,1.0425-.0183.1063-.1194.1983-.2346.3778.4647-.0848.7754-.1415,1.086-.1981.0969.3798.1938.7596.2906,1.1394-.5172-.2294-1.0343-.4587-1.5516-.6882-.0588-.4868-.1175-.9736-.1763-1.4603-.036-.8644-.072-1.7289-.108-2.5933Z"/>
    <path class="j" d="m16.9776,18.3286c-.2273-.1976-.4545-.3952-.7278-.6328-.2313.3598-.4427.6887-.6541,1.0176,0,0,.0071-.0013.0071-.0013-.0533.0503-.1065.1006-.1597.1508,0,0,.0062-.0109.0063-.0108-.3062.2403-.6124.4805-.9187.7206l-.0425-.0028s-.0295.0307-.0295.0307c-.3805.1071-.761.2142-1.1415.3212-.0505-.6407.1991-.9873.8884-.97.2642.0066.5307-.0809.8656-.1372.5147-1.05,1.5647-1.6474,2.6518-1.48.0004.0002.011.0074.011.0071.1119.6077-.2522.851-.7564.987Z"/>
    <path class="f" d="m62.0123,83.8661c-.0682-.9544-.2081-1.9107-.1823-2.8625.0211-.7801.2349-1.5558.379-2.3305.0108-.0583.1477-.0931.226-.1389.0163.5287.0327,1.0574.049,1.5861-.0132.0957-.0265.1914-.0397.2872-.0019.9135-.0039,1.827-.0058,2.7405.0169.239.0338.478.0507.717-.0196.2406-.0393.4811-.0589.7217h-.2738c-.048-.2402-.0961-.4803-.1441-.7205Z"/>
    <path class="f" d="m62.4263,77.3814c-.1336-.1119-.3707-.2127-.3841-.3375-.0854-.7972-.1216-1.5997-.1741-2.4005v-1.441c.2449.096.4898.1921.7347.2881-.0026.4813-.0053.9625-.0079,1.4438-.0562.8157-.1124,1.6314-.1686,2.4471Z"/>
    <path class="d" d="m62.0123,61.9622c-.1261-.1763-.3722-.3621-.359-.5274.0891-1.1236.2329-2.2428.359-3.3634.1673.048.3345.0961.5018.1441.0206.1442.0412.2883.0618.4325-.0057.9175-.0115,1.8349-.0173,2.7524-.0304-.0065-.0608-.0072-.0914-.0022-.1516.188-.3033.376-.4549.5641Z"/>
    <path class="h" d="m62.6029,73.4905c-.2449-.096-.4898-.1921-.7347-.2881v-2.5939c.2634.0005.5268.001.7902.0016-.0018.095-.0035.1901-.0053.2851-.1138.0833-.2277.1667-.3415.25.1115.1142.223.2284.3346.3426-.0044.0859-.0088.1719-.0134.258-.004.2006-.0078.4011-.0116.6017-.0061.381-.0122.762-.0183,1.143Z"/>
    <path class="f" d="m62.4241,64.7004c.063.0961.1261.1921.1891.2882.0017.9609.0034,1.9217.0051,2.8826-.8005-.6076-.9097-1.3086-.3445-2.2108-.5402-.8566-.5392-.8632.1502-.96Z"/>
    <path class="f" d="m62.5141,58.2156c-.1673-.048-.3345-.0961-.5018-.1441-.4883-.6156-.404-2.1342.1441-2.5939-.0072.3004-.0373.6176.422.5766.0036.144.0072.288.0109.432-.0535.048-.107.0959-.1605.1439-.1213.0291-.2427.0582-.364.0874-.0003.0371-.0005.0742-.0008.1114.1204.0301.2408.0601.3611.0902.0149.0959.0298.1917.0447.2876.0148.3363.0296.6727.0444,1.009Z"/>
    <path class="j" d="m10.7162,12.0422c.4791-.0695.9581-.139,1.4372-.2084-.0002.0895-.0003.1789-.0005.2684-.1278.0353-.2556.0707-.3833.106.0046.0378.0092.0756.0138.1135.1232.0229.2463.0458.3695.0686-.6561.9654-1.5282.2123-2.2961.2885.2117-.1844.4234-.3688.6352-.5533.0747-.0278.1495-.0555.2242-.0833Z"/>
    <path class="f" d="m62.6584,70.6101c-.2634-.0005-.5268-.001-.7902-.0016.0136-.6705-.1748-1.3937.4777-1.8994.084-.0651.207-.08.3119-.1182.0249.3363.0498.6726.0747,1.0089-.0247.3368-.0494.6735-.0741,1.0103Z"/>
    <path class="i" d="m24.6714,34.454c.2548-.241.5095-.4819.7645-.7228.0397,0,.0789.0024.1181.0077.0816.3119.1631.6237.2549.9745-.3194-.4242-.8301.3905-1.1667-.2029-.0003-.0005.0292-.0564.0292-.0564Z"/>
    <path class="f" d="m62.7236,53.6074c.0201.2039.0402.4079.0604.6119-.003.0427.004.0836.0211.1228-.0116.0881-.0232.1762-.0348.2643-.0133.0473-.0266.0946-.04.142-.041.0048-.082.01-.1229.0157-.2884-.1266-.5768-.2532-1.0711-.4702.3682-.1934.5662-.2975.7642-.4015.0234.1679.0467.3357.0701.5036.0493,0,.0986,0,.1479,0,.023-.1676.0461-.3353.0691-.5029l.1359-.2857Z"/>
    <path class="d" d="m74.8356,23.9188c.1812-.4856.3623-.9712.5435-1.4568.2206.5769-.0689,1.4811-.5123,1.6005-.0104-.0479-.0208-.0957-.0312-.1436Z"/>
    <path class="j" d="m86.1455,15.1093c.3137-.0976.6273-.1952.941-.2928.096.0167.192.0335.288.0502-.1805.1168-.3494.2977-.5447.3333-.2154.0393-.4551-.0547-.6843-.0907Z"/>
    <path class="j" d="m62.5784,56.0542c-.4593.041-.4292-.2762-.422-.5766.0958-.0478.1917-.0956.2875-.1434.0436.1429.0872.2858.1309.4287.0012.0971.0024.1942.0036.2913Z"/>
    <path class="j" d="m14.4446,12.1441c.0605.0721.121.1441.1816.216-.1518.0579-.3037.116-.4556.174-.0963-.1835-.1925-.367-.2888-.5506.0945.0159.189.0319.2835.0481.0931.0376.1862.075.2793.1124Z"/>
    <path class="f" d="m62.6462,71.4879c-.1115-.1142-.223-.2284-.3346-.3426.1139-.0833.2277-.1667.3415-.25-.0023.1976-.0047.3951-.007.5927Z"/>
    <path class="i" d="m26.4051,33.1044c.071.585-.4047.5052-.7341.6033.0195-.0474.0392-.0947.0587-.1419.0344-.0333.0692-.0667.1039-.1001.1905-.1204.381-.2409.5715-.3613Z"/>
    <path class="f" d="m61.1636,25.6475c-.0148.048-.0296.096-.0444.144l-.1098-.5787c.0315.0127.0643.0193.0983.0197.0186.1383.0373.2767.0559.415Z"/>
    <path class="j" d="m62.425,56.9189c-.1204-.0301-.2408-.0601-.3611-.0902.0003-.0371.0005-.0742.0008-.1114.1213-.0291.2427-.0582.364-.0873.0153.0482.0305.0965.0458.1447-.0165.0481-.033.0961-.0495.1442Z"/>
    <path class="f" d="m62.6212,72.3475c.0038-.2005.0076-.401.0116-.6017-.0038.2005-.0077.4011-.0116.6017Z"/>
    <path class="f" d="m62.5701,55.3334c.0154.0962.0309.1924.0463.2887-.0138.0469-.0277.0939-.0416.1408-.0436-.1429-.0872-.2858-.1309-.4287.042-.0005.0841-.0007.1261-.0007Z"/>
    <path class="g" d="m25.8336,33.4657c-.0348.0334-.0695.0668-.1039.1001.0349-.0335.0694-.0668.1039-.1001Z"/>
    <path class="f" d="m62.629,68.2903c-.0026-.0459-.0051-.0917-.0076-.1376.0264.0445.0289.0904.0076.1376Z"/>
    <path class="d" d="m41.2615,40.773c.5284-.0515,1.0569-.1029,1.5853-.1544.2405.0005.481.001.7214.0015,1.1041-.0891,2.2081-.1783,3.3122-.2674.2882,2.6879.5764,5.3758.8646,8.0638-.3057.099-.6321.1599-.9092.3111-.1678.0915-.3442.3139-.3635.4939-.0244.2274.1039.673.172.6741.3183.0052.6386-.1102.9582-.1825h-.0002c-.0465.7715-.1327,1.5441-.1119,2.3139.0053.1942.3525.3792.5425.5684.048.2402.0961.4803.1442.7205-.1685.0645-.4067.0796-.4935.202-.3917.5527.0156,2.0943.6394,2.536-.0006.0961-.0013.1922-.0019.2883-.1916.1441-.3832.2882-.5748.4322-.3245-.0002-.6489-.0004-.9734-.0007-.0596-.1461-.1191-.2922-.1787-.4383-.0274-.0404-.0548-.0809-.0822-.1213-.0416-.091-.0833-.182-.1249-.273.0515-.2779.103-.5557.1545-.8336-.4235.0868-.7591-1.004-1.2442-.093-.1447-.0177-.2893-.0353-.434-.053-.2678-.8013-1.0316.1419-1.2798-.3406-.3048.3465-.5923.6735-.8799,1.0005-.1209-.7697-.2465-1.5388-.3616-2.3093-.172-1.1509-.3367-2.3029-.5046-3.4545-.0479-.1922-.0959-.3844-.1438-.5766l.0002.0002v-.1448c-.1921-.9125-.3843-1.8251-.5764-2.7376.1375-.1316.275-.2632.4125-.3947l-.5553-.3258c-.0493-.3837-.0986-.7675-.1479-1.1513.1824-.3798.4287-.7806-.2846-.8662-.0484-.2882-.0969-.5763-.1453-.8645.0891-.0858.1781-.1716.2672-.2575-.1368-.1064-.2736-.2127-.4104-.3191-.0936-.416-.1872-.8321-.2808-1.2481.0441-.019.0881-.0384.1319-.0581.3857-.0469.7713-.0938,1.157-.1407Zm1.8767,12.9388c-.0857-.0176-.1714-.0351-.2572-.0527-.0405.1864-.081.3728-.1214.5592.0857.0175.2444.0567.2466.0494.054-.1823.0916-.3696.132-.5559Z"/>
    <path class="d" d="m47.8937,40.3048c.2386.0058.4773.0116.7159.0174.2877-.0418.5754-.0837.8631-.1256.2356-.0008.4713-.0017.707-.0024.3733.0175.7465.0349,1.1259.0526.3069,2.6332.6792,5.1799.882,7.7401.2316,2.9228.3124,5.8576.4587,8.7872-.0261.8986-.0595,1.7972-.0623,2.6958-.0002.0619.2281.1245.3501.1867l.1411,1.8725c-.1685-.0175-.337-.035-.5055-.0526.0003.0839.0005.1679.0008.2518.1685-.0182.337-.0365.5055-.0547.0393.001.0786.0015.118.0015-.1174.2196-.2349.4391-.3524.6587-.0407-.0359-.0813-.0719-.122-.1078.0311.0583.0622.1165.0933.1748-.0198.0461-.0396.0922-.0594.1383-.4944.0344-.9903.0546-1.4826.1076-.415.0447-.8259.1277-1.2386.1938,0,0,.0069.0012.0069.0012-.0511-.0986-.1021-.1973-.1532-.2959,0,0,.0077.008.0077.0079.0417-.1806.1087-.3607.1113-.5418.0009-.0635-.1565-.1292-.2416-.1939.0757-.1672.1514-.3343.2271-.5015.0959-.0042.1918-.0085.2878-.0127l-.3583-.5772c-.3758.3996-.4908-.1306-.7335-.2057-.0006-.0478-.0008-.0956-.0006-.1434.4749-.5545.4173-1.1402-.1417-1.4415-.0477-.4324-.0954-.8647-.1431-1.2971.143-.2043.3847-.4024.3979-.6148.0107-.1703-.2557-.358-.3991-.538-.0007-.288-.0015-.576-.0023-.864.1874-.2864.3097-.56-.1415-.7211-.0001-.1442-.0002-.2883-.0003-.4325.0872-.0607.1743-.1214.2615-.1821-.0874-.0834-.1748-.1668-.2622-.2502-.1445-1.7292-.2889-3.4584-.4334-5.1876.199-.0876.3981-.1752.7838-.3449-.424-.238-.675-.3789-.926-.5199-.0005-.144-.0009-.2881-.0014-.4321.2783-.2626.5567-.5252.7316-.6903-.1769-.453-.3017-.871-.5045-1.2471-.0899-.1667-.3375-.2483-.5135-.3685-.1441-1.2489-.2881-2.4978-.4322-3.7467.0746-.037.1492-.074.2238-.111-.0747-.0591-.1494-.1182-.2241-.1773,0-.0961-.0001-.1921-.0002-.2882.0869-.0843.1738-.1686.2607-.2529-.0887-.0589-.1775-.1178-.2662-.1767-.0473-.0508-.0947-.1015-.142-.1523.0479-.0215.0958-.043.1438-.0643.1461.0095.2923.0187.4384.0279Z"/>
    <path class="c" d="m53.0753,61.5291l-.1411-1.8725c-.0959-.9608-.1919-1.9217-.2878-2.8825-.1463-2.9296-.2271-5.8644-.4587-8.7872-.2029-2.5602-.5752-5.1069-.882-7.7401-.3794-.0177-.7526-.0351-1.1259-.0526.019-.0388.0332-.0793.0426-.1215.4713-.0559.9428-.1117,1.4143-.1675.1924.051.3848.1019.5771.1529-.2462.1695-.4118.2769-.3488.7043.229,1.5532.3316,3.1247.4951,4.6879.1337,1.278.2862,2.5541.4304,3.831.0989,1.6011.196,3.2023.3017,4.8029.0055.0828.0844.1607.1291.2409.0006.1921.0013.3842.0019.5762.048.9607.0961,1.9213.1441,2.882.0002.2403.0004.4805.0006.7207.0479.9582.0959,1.9165.1438,2.8747-.1059.0988-.2118.1977-.3177.2966-.0393,0-.0786-.0005-.1179-.0016-.0002-.0482-.0005-.0964-.0008-.1445Z"/>
    <path class="c" d="m47.4595,41.4994c.1441,1.2489.2881,2.4978.4322,3.7467.0955.7686.191,1.5372.2865,2.3058.0005.144.0009.2881.0014.4321.0474.2883.0949.5765.1423.8648.1445,1.7292.2889,3.4584.4334,5.1876.0002.1441.0005.2882.0007.4323.0001.1442.0002.2883.0003.4325.0472.2404.0944.4807.1415.7211.0008.288.0015.576.0022.864.0004.3842.0008.7685.0012,1.1527.0477.4324.0954.8647.1431,1.2971.0472.4805.0945.961.1418,1.4415-.0002.0478,0,.0956.0006.1434-.0003.2804-.0005.5608-.0008.8412-.1356.063-.2712.1261-.4069.189-.0565-.7757-.1128-1.5513-.1692-2.3268-.0473-.1922-.0945-.3845-.1418-.5767-.049-.7685-.0979-1.5369-.1469-2.3054.0006-.0961.0013-.1922.0019-.2883-.0486-.9127-.0973-1.8253-.1459-2.738-.0481-.2402-.0961-.4803-.1441-.7205-.048-.8084-.0823-1.618-.1557-2.4241-.0146-.1598-.1794-.3058-.2749-.4582,0,0,.0002,0,.0002,0,.0475-.4322.095-.8645.1425-1.2967-.2882-2.6879-.5764-5.3759-.8646-8.0638.1437-.0038.2875-.0077.4312-.0115.0473.0507.0947.1015.142.1522.0018.1432.0036.2864.0054.4296,0,.0961.0001.1921.0002.2882,0,.0961.0002.1922.0003.2882Z"/>
    <path class="c" d="m40.3966,42.7965c.0484.2882.0969.5763.1453.8645.0948.2887.1897.5775.2846.8662.0493.3837.0986.7675.1479,1.1513.0476.2402.0953.4804.1429.7205.1921.9125.3843,1.8251.5764,2.7376,0,.0483,0,.0965,0,.1448,0,0-.0002-.0002-.0002-.0002.0479.1922.0959.3844.1438.5766.1678,1.1515.3325,2.3036.5045,3.4545.1152.7706.2407,1.5396.3616,2.3093.0963.4826.1927.9652.2891,1.4477-.1059.5711-.2119,1.1422-.3178,1.7133-.2314-1.6781-.4629-3.3562-.6943-5.0343-.048-.2402-.096-.4804-.1439-.7206-.2439-1.234-.4856-2.4684-.7324-3.7017-.137-.6846-.2926-1.3655-.4213-2.0516-.1535-.8183-.2871-1.6402-.4294-2.4606-.0954-.2404-.1908-.4809-.2861-.7213-.0494-.5761-.0987-1.1523-.1481-1.7284-.095-.1924-.19-.3849-.285-.5773-.0016-.233-.0033-.4661-.0049-.699.1478-.0387.2955-.0775.4433-.1161.0936.4163.1872.8323.2808,1.2483.0477.1922.0955.3844.1432.5766Z"/>
    <path class="i" d="m41.2615,40.773c-.3856.0469-.7713.0938-1.157.1407-.452-.0743-.9039-.1485-1.4396-.2364.1134-.129.1816-.2751.2519-.276.68-.0092,1.3612-.0094,2.0396.0301.108.0063.2037.2225.3051.3417Z"/>
    <path class="i" d="m36.3633,41.4607c-.4327.0525-.8654.1051-1.2981.1575.1836-.3823.1556-1.0509.8762-.7404.1892.0815.2838.3826.4219.5829Z"/>
    <path class="i" d="m66.337,40.437c-.5377-.0584-1.0754-.1168-1.6133-.1748.7612-.5164,1.3114-.4569,1.6133.1748Z"/>
    <path class="i" d="m64.0318,40.2315c-.3851-.0161-.7702-.0322-1.1553-.0484.0421-.6853.6687-.3115.9665-.5334.0629.1939.1258.3879.1888.5818Z"/>
    <path class="i" d="m25.2731,43.8247c-.4345.1862-.8691.3724-1.3036.5586.1634-.5223,1.0039-.8825,1.3036-.5586Z"/>
    <path class="i" d="m61.8683,40.155c-.436-.0713-.872-.1425-1.308-.2136.5005-.4788.9003-.4135,1.308.2136Z"/>
    <path class="i" d="m51.6366,39.905c-.4715.0558-.943.1116-1.4143.1675-.0255-.0965-.1049-.2403-.0682-.2821.26-.2959,1.156-.2164,1.4825.1146Z"/>
    <path class="i" d="m43.5682,40.6201c-.2405-.0005-.481-.0009-.7214-.0015.1241-.4978.4793-.5646.9563-.5185-.0907.2009-.1628.3604-.2348.52Z"/>
    <path class="i" d="m47.8937,40.3048c-.1461-.0092-.2922-.0184-.4384-.0279.1581-.2306.3162-.4609.4743-.6913.0821.0553.1642.1107.2463.166-.0941.1844-.1881.3688-.2822.5532Z"/>
    <path class="i" d="m49.4727,40.1965c-.2877.0419-.5754.0838-.8631.1256-.031-.1521-.0619-.3042-.1203-.5912.3874.1834.6854.3245.9834.4656Z"/>
    <path class="i" d="m68.0583,40.5044c-.0939.0428-.1879.0857-.2819.1285-.097-.0439-.194-.0877-.2909-.1316.1093-.1433.2186-.2867.3279-.4301.0816.1444.1633.2888.2449.4332Z"/>
    <path class="i" d="m28.2993,42.9533c-.2425.091-.485.1821-.7276.2731.0494-.6056.3609-.5128.7276-.2731Z"/>
    <path class="i" d="m53.3659,40.0345c-.2401.0022-.4801.0044-.7202.0066.2344-.6302.4762-.445.7202-.0066Z"/>
    <path class="i" d="m37.5168,41.307c-.0975-.0057-.195-.0114-.2925-.0173-.0512-.6028.334-.5378.6623-.4896-.1168.1601-.2433.3335-.3698.5069Z"/>
    <path class="i" d="m34.3459,41.7483c-.0983.0087-.1967.0175-.2951.0262.1042-.2425.2084-.4849.3127-.7274.0604.0313.1208.0625.1812.0938-.0663.2025-.1325.405-.1988.6074Z"/>
    <path class="i" d="m30.4646,42.3828c-.1478.0866-.2957.1731-.4435.2596.013-.317.0459-.6001.4435-.2596Z"/>
    <path class="i" d="m51.3464,21.8831c.1898.1087.3797.2175.5694.3264-.4021.2615-.5664.1081-.5694-.3264Z"/>
    <path class="i" d="m72.3884,41.1961c-.0966-.042-.1932-.0839-.2898-.1259.058-.0741.116-.1482.1741-.2223l.1157.3481Z"/>
    <path class="i" d="m69.7938,40.7785c-.1441-.0033-.2882-.0067-.4323-.0101.0623-.0845.1245-.169.1868-.2534.0818.0878.1637.1757.2455.2635Z"/>
    <path class="i" d="m23.3978,44.5402c-.0494.0438-.0988.0876-.1482.1314-.0105-.123-.0209-.2461-.0314-.3691.0599.0792.1197.1585.1796.2377Z"/>
    <path class="i" d="m46.038,39.7381c-.1003.0084-.2005.0167-.3008.0251-.0034-.028-.0068-.0561-.0103-.0841.0996-.0146.1993-.0292.2989-.0437.004.0342.0081.0685.0121.1027Z"/>
    <path class="i" d="m32.1883,42.0864c-.0978.0426-.1956.0852-.2934.1278.0978-.0426.1956-.0852.2934-.1278Z"/>
    <path class="i" d="m33.0378,42.0294l-.06.0032s-.0562-.0213-.056-.0216c.0388.0059.0774.0122.116.0185Z"/>
    <path class="h" d="m34.059,41.825c-.0626.0315-.1252.063-.1882.0945.0625-.0315.1253-.063.1882-.0945Z"/>
    <path class="e" d="m56.116,61.7877c-.0903-.1826-.1806-.3652-.2711-.5477-.497-1.8241-.54-3.6156.3844-5.3374.0529-.0988.1058-.1976.1587-.2964.2424-.1838.4848-.3677.7271-.5515.0501-.0117.1001-.0233.1502-.0349.2381-.0037.4762-.0075.7143-.0112.1443.0591.2885.1183.4328.1774.0853.0594.1706.1187.2559.1781,0,0,.0081-.0181.0082-.018.0499.0635.0998.127.1496.1905.0542.076.1085.152.1627.228.0354.0544.0709.1087.1063.163.2097.5725.4193,1.145.6289,1.7175-.1093,1.244-.2184,2.488-.3277,3.7321-.1431.2411-.2862.4823-.4292.7235-.0823.0981-.1646.1962-.2469.2943-.0608.0828-.1216.1657-.1823.2486-.1866.068-.3733.1359-.5599.2038-.8922.1239-1.4055-.4179-1.8621-1.0596Zm.569-4.7983c-.0548.0448-.1095.0896-.1643.1344.2763.3293.4951.7653.8467.9551.295.1592.6154-.5271.5202-1.1661-.0104-.0695-.0172-.1469-.0526-.2039-.1661-.2674-.3416-.529-.5137-.7927-.2121.2623-.433.5183-.6296.7917-.0452.0629-.0067.1861-.0067.2815Z"/>
    <path class="c" d="m58.4124,55.186c-.1443-.0591-.2885-.1183-.4328-.1773-.0011-1.717-.0023-3.434-.0034-5.1511.0162-3.0893.0312-6.1787.0562-9.268.0005-.0652.1157-.1294.2719-.2932.0476.2704.1003.4363.1026.6029.0521,3.7323.1003,7.4647.145,11.1971.0095.7907.0023,1.5816.0027,2.3725-.0474.239-.0948.478-.1421.717Z"/>
    <path class="c" d="m57.9781,62.8473c.1867-.0679.3734-.1358.5599-.2038-.0427.4886-.1207.9772-.1223,1.466-.0104,3.2711-.0045,6.5423-.0039,9.8135-.0004.2882-.0007.5764-.001.8646,0,.1441,0,.2882,0,.4323,0,.3843,0,.7686,0,1.1528.0299.3993.0825.799.0768,1.1978-.0019.1319-.154.2617-.2375.3925-.0862.0078-.1724.0155-.2586.0233-.0052-.1535-.0103-.3071-.0155-.4606,0-1.201,0-2.4019,0-3.6028.0001-3.1702.0002-6.3405.0003-9.5107-.0003-.3363-.0006-.6725-.0009-1.0088.0009-.1853.0017-.3706.0026-.5559Z"/>
    <path class="c" d="m53.7978,70.7523v2.0182c-.0471,1.2969-.0942,2.5937-.1413,3.8906-.0638.0785-.1277.1569-.1915.2354-.0813-.1746-.1627-.3491-.244-.5237.0001-.1441.0002-.2882.0003-.4323.0001-.2402.0002-.4803.0004-.7205,0-2.738,0-5.476-.0001-8.214-.0002-.4323-.0004-.8646-.0006-1.2969-.0002-.2402-.0004-.4804-.0006-.7206l-.0014-.288c.0013-.1333.0026-.2665.0039-.3998.134-.0832.2681-.1664.4022-.2496.01.2165.02.4329.0299.6494.0003.3842.0006.7683.0009,1.1525.0473,1.6331.0945,3.2662.1418,4.8993Z"/>
    <path class="d" d="m57.9764,64.4121c-.0001,3.1702-.0002,6.3405-.0003,9.5107-.0956-.1859-.2669-.3691-.2737-.5582-.0302-.8379-.0121-1.6776-.0135-2.5166-.0009-.5437.0912-1.0998-.439-1.5133-.1258-.0981-.1286-.396-.1314-.6027-.0128-.9587.0391-1.9205-.0202-2.8757-.0453-.7288.2247-1.1818.8781-1.4442Z"/>
    <path class="d" d="m59.4163,82.1444l-.1403-.7317c.0064-.1429.0127-.2858.0191-.4287.4993.0732.9975.1317.743.8718-.0356.1035.1754.2708.2008.4207.0606.3566.4052.7738-.2043,1.0284-.1106.0462-.1687.3216-.1755.4941-.0217.5501-.0078,1.1016-.0077,1.6526,0,.4322,0,.8644,0,1.2966.2721.6946.6987,1.3747.1593,2.138.1564.1335.2878.2457.4516.3855-.5444.4168-.6909.8254-.182,1.3532.1459.1514.1031.4848.1468.7347-.1523.003-.3045.0061-.4568.0091-.0485-.0989-.0969-.1978-.1454-.2967.004-.0964.008-.1928.0119-.2892-.0929-2.4392-.1837-4.8785-.2809-7.3175-.0161-.4031-.0599-.805-.0907-1.2074-.0163-.0378-.0327-.0756-.0491-.1135Z"/>
    <path class="d" d="m56.2293,55.9026c-.9244,1.7218-.8815,3.5132-.3844,5.3374-.887.217-.8711.2165-.9023-.7277-.0107-.325-.1104-.6497-.1906-.9693-.1299-.518-.2641-1.0286.3767-1.3731-.4395-.4745-.5327-.9352-.1915-1.496.1525-.2507.1081-.6212.1405-.8494.2891-.0738.587-.1499.9417-.2405.0376.0571.1238.1878.2099.3186Z"/>
    <path class="d" d="m54.0867,81.4164c.048-.6505.0977-1.3009.1432-1.9516.016-.2291.0219-.4589.0957-.6872.6924,1.5998.1377,3.2258.0058,5.0064.2076-.17.2714-.2144.3253-.2687.0479-.0483.0848-.1077.2026-.2613.1868.8228.0485,1.5134-.1961,2.1974-.5879-.4855-.8518-1.1152-.8761-1.8715-.0047-.147-.1531-.2893-.2353-.4338.0034-.2403.0068-.4806.0101-.721.0622-.0482.1244-.0964.1866-.1445-.0626-.0478-.1252-.0957-.1878-.1435-.0003-.0958-.0005-.1916-.0008-.2874.1756-.1444.3512-.2888.5267-.4332Z"/>
    <path class="h" d="m55.4789,94.1201c-.9945-2.4079-1.4663-4.9313-1.6604-7.5161l.8446-.144v.2882c-.0961.2402-.1921.4803-.2882.7205v.5764c.1474.7551.3251,1.4787.2095,2.2917-.0832.5855.2638,1.2271,1.1136,1.0448v2.1113c.0102.0123.1361.1644.262.3165-.1604.1036-.3208.2072-.4811.3108Z"/>
    <path class="d" d="m53.6551,64.7005c-.01-.2165-.02-.4329-.0299-.6491.0985-.7968.2096-1.5928.2762-2.3926.0068-.082-.2534-.1862-.3897-.2802-.0479-.9582-.0959-1.9165-.1438-2.8747.1434.3937.2789.7905.4319,1.1805.2104.5363.4731,1.0555.6397,1.6044.1363.4489.1818.9286.2355,1.3983.0414.3618-.1018.8248.0751,1.074.3545.4998.0206.8093-.2324,1.0218-.1551.1303-.5664-.0446-.8627-.0824Z"/>
    <path class="h" d="m53.5791,78.6801c-.0315-.2547-.0629-.5093-.0943-.764-.0348-.0024-.0696-.0048-.1044-.0071-.1077.8328-.2155,1.6657-.3232,2.4986-.4995-.2902-1.0091-.572-.3638-1.2144.0684-.0681.113-.2643.0672-.327-.4745-.6489-.1338-1.332-.1262-2.0041.0051-.4534.2306-.5194.5867-.4894l.244.5237c.0638-.0785.1277-.1569.1915-.2354.0953.3842.1907.7685.2861,1.1527-.1065.2949.2692.7922-.3635.8663Z"/>
    <path class="d" d="m53.2213,54.3249c-.0447-.0802-.1236-.1581-.1291-.2409-.1057-1.6006-.2028-3.2018-.3017-4.8029.4749-.0621.868.1453.9112.592.0511.5286.0322,1.1229-.1697,1.5981-.1561.3674-.5358.5853.063.8548.0853.0384.1898.2443.1808.2522-.5446.4728-.2145,1.1257-.3611,1.6753-.0102.0383-.1264.0483-.1933.0715Z"/>
    <path class="d" d="m53.9426,77.8137c-.0954-.3842-.1908-.7685-.2861-1.1527.0471-1.2969.0942-2.5937.1413-3.8906.2755.0879.7894.1784.7884.2633-.0069.6271.035,1.3292-.2318,1.8603-.3363.6693-.3125,1.2721-.1553,1.922.0704.291.2255.5616.3738.9173-.2719.0347-.4511.0576-.6303.0805Z"/>
    <path class="d" d="m53.7978,70.7523c-.0473-1.6331-.0946-3.2662-.1418-4.8993.1586-.0278.3171-.0555.5663-.0992,0,.5042.0169.9709-.0042,1.4359-.0274.6013-.0972,1.2008-.121,1.8021-.0056.1426.0651.3847.1594.4187.5496.1987.486.6718.3498,1.0051-.0779.1906-.5267.2295-.8085.3367Z"/>
    <path class="d" d="m57.9781,62.8473c-.0008.1853-.0017.3706-.0026.556-.2677.1434-.5308.3933-.8041.4049-.3932.0168-.7939-.1397-1.2468-.2338.068-.6346.1296-1.2105.1914-1.7866.4566.6416.9699,1.1834,1.8621,1.0595Zm-1.3524.3724c-.0401-.0174-.0891-.0574-.1177-.046-.0289.0115-.0376.0739-.0552.1139.04.0175.089.0575.1173.0461.0291-.0117.038-.0737.0556-.1141Z"/>
    <path class="h" d="m57.4963,90.6068c.1164.4431.2329.8862.3494,1.3294.1887.7683.3775,1.5365.5662,2.3048-.1321-.0829-.2792-.1493-.3927-.2526-.1815-.1654-.3407-.3554-.5093-.535-.0841.0437-.1683.0874-.2524.1312,0-.8371-.0122-1.6745.0108-2.511.0043-.1575.1484-.3112.228-.4667Z"/>
    <path class="h" d="m57.1386,87.4678c-.0145.1925-.029.3849-.0434.5774-.3304-.0481-.6607-.0961-.9911-.1442v-.4323c.0961-.0961.1921-.1921.2882-.2882.048-.0961.0961-.1921.1441-.2882-.621-.7446-.5874-.8845.4154-1.7291.0623.7682.1245,1.5364.1868,2.3046Z"/>
    <path class="f" d="m59.3964,61.3772c.1092-1.244.2184-2.4881.3277-3.7321.1485.1723.2795.3645.4489.5127.3742.3273.316.6501.101,1.0479-.1342.2484-.2428.5882-.1846.8468.1242.552-.1093,1.0932-.693,1.3246Z"/>
    <path class="h" d="m53.6294,86.1722c-.0259-1.0088-.0518-2.0175-.0776-3.0263.0821.1445.2306.2869.2353.4338.0242.7563.2882,1.386.8761,1.8715v.5764c-.4341-.3003-.6898-.0736-.8948.3029-.0463-.0528-.0926-.1056-.139-.1584Z"/>
    <path class="f" d="m57.9762,49.8576c.0011,1.7171.0023,3.4341.0034,5.1511-.2381.0037-.4762.0075-.7143.0112.1413-.3346.3898-.6645.4045-1.0044.0505-1.1739.0054-2.3516.0324-3.527.0049-.2123.1784-.4206.274-.6308Z"/>
    <path class="h" d="m57.976,77.5257c.0052.1535.0103.3071.0155.4606-.0641.3703-.1283.7407-.1924,1.111-.0356.0567-.0712.1135-.1067.1702-.0388.0428-.0777.0856-.1165.1283-.0097.1934-.0194.3868-.0291.5802-.0403.001-.0804.0041-.1204.0093-.0565-.4356-.113-.8713-.1695-1.3069-.048-.2402-.0961-.4803-.1441-.7205v-.1441c.048-.048.0961-.0961.1441-.1441.2397-.048.4794-.096.7191-.144Z"/>
    <path class="d" d="m53.3673,57.7831c-.048-.9607-.0961-1.9213-.1441-2.882.1853.2104.516.4127.5282.6328.0354.6353-.0443,1.2792-.1117,1.9162-.0126.1193-.1777.2224-.2725.333Z"/>
    <path class="f" d="m62.4672,61.3982c-.0146.7645-.0292,1.5289-.0437,2.2934-.5204.0067-.5987-.2122-.3824-.6605.1653-.3425.4039-.7257-.0288-1.0688.1516-.188.3033-.376.4549-.5641Z"/>
    <path class="d" d="m61.8682,73.0583v1.5851c-.6295-.5522-.6295-1.2341,0-1.5851Z"/>
    <path class="f" d="m59.9704,91.3687c.1523-.003.3045-.0061.4568-.0091.1621.4645.3339.9298-.1158,1.3415-.0415-.0678-.083-.1355-.1245-.2033-.0721-.3764-.1443-.7527-.2165-1.1291Z"/>
    <path class="d" d="m62.0123,83.8661c.048.2402.0961.4803.1441.7205-.1789.0929-.3578.1858-.5384.2795-.237-.5546-.1732-.7086.3943-1Z"/>
    <path class="f" d="m57.1152,55.0547c-.2424.1839-.4847.3677-.7271.5515-.0467-.139-.0935-.2779-.1402-.4168,0,0,.0007-.0003.0007-.0003l.1438-.144v-.144c.307-.2598.6368-.6267.7229.1536Z"/>
    <path class="d" d="m53.7683,86.3306c.205-.3765.4607-.6032.8948-.3029v.4323l-.8446.144c-.0167-.0911-.0334-.1823-.0501-.2734Z"/>
    <path class="h" d="m59.8515,86.7482c0-.4322,0-.8644,0-1.2966.0958.0959.1917.1919.2875.2879v.8646c-.0958.048-.1917.0961-.2875.1441Z"/>
    <path class="h" d="m59.2744,62.3946v.7885c-.0985.0136-.197.0272-.2955.0409-.0456-.2758-.0912-.5517-.1368-.8275.1441-.0006.2882-.0013.4323-.0019Z"/>
    <path class="h" d="m56.9503,83.4337c-.0004.2402-.0009.4804-.0014.7206-.2112-.1877-.4224-.3754-.7458-.6628.321-.0248.5341-.0413.7472-.0577Z"/>
    <path class="h" d="m58.4108,76.3727c0-.3843,0-.7686,0-1.1528.4636.3843.4636.7686,0,1.1528Z"/>
    <path class="d" d="m54.3749,88.0452v-.5764l.5689.0883c.0096.0683.0192.1367.0287.205l-.5976.2831Z"/>
    <path class="d" d="m57.1128,77.9578c.048.2402.0961.4803.1441.7205-.048-.2402-.0961-.4803-.1441-.7205Z"/>
    <path class="d" d="m60.139,86.6041v-.8646c.4472.2882.4472.5764,0,.8646Z"/>
    <path class="h" d="m58.4108,74.7875c.0003-.2882.0007-.5764.001-.8646.4433.2887.4445.5769-.001.8646Z"/>
    <path class="f" d="m58.4124,55.186c.0474-.239.0947-.478.1421-.717.0381.2982.0762.5964.114.8948-.0856-.0591-.1709-.1185-.2561-.1779Z"/>
    <path class="d" d="m55.4789,94.1201c.1604-.1036.3207-.2072.4811-.3108-.1055.2444-.2111.4888-.3166.7333-.0548-.1408-.1097-.2816-.1645-.4225Z"/>
    <path class="h" d="m53.5599,81.8495c-.0022-.1446-.0043-.2893-.0065-.4339.1777.0002.3555.0005.5332.0007-.1756.1444-.3512.2888-.5267.4332Z"/>
    <path class="j" d="m62.5877,53.8931c-.023.1676-.0461.3353-.0691.5029-.0493,0-.0986,0-.1479,0-.0234-.1679-.0467-.3357-.0701-.5036.0957.0002.1914.0005.2871.0007Z"/>
    <path class="f" d="m59.2744,62.3946c-.1441.0006-.2882.0012-.4323.0019-.0406-.0011-.0812-.0016-.1218-.0015.0824-.0981.1647-.1962.2469-.2943.1024.098.2048.1959.3072.2939Z"/>
    <path class="d" d="m56.1041,87.4687v.4323c-.0875-.0835-.1749-.1671-.2624-.2506.0875-.0606.1749-.1212.2624-.1817Z"/>
    <path class="h" d="m57.1204,88.6186c.0376.1451.0753.2902.1129.4353-.0376-.1451-.0753-.2902-.1129-.4353Z"/>
    <path class="h" d="m57.1382,82.5686c-.0153.0576-.0306.1153-.0457.1729-.08-.0903-.1603-.1806-.2405-.2709.0804-.0632.1608-.1263.2412-.1895.015.0958.03.1917.0449.2875Z"/>
    <path class="h" d="m57.236,89.3465l.1348.5717c-.045-.1906-.0899-.3812-.1348-.5717Z"/>
    <path class="h" d="m56.3403,84.6945c-.0175.0399-.0262.1021-.055.1135-.0287.0114-.0776-.0281-.1177-.0452.0173-.04.0258-.1025.0544-.1137.029-.0114.0779.0279.1182.0454Z"/>
    <path class="f" d="m63.035,91.0656c.0363.0979.0726.1959.1088.2938-.0363-.0979-.0726-.1959-.1088-.2938Z"/>
    <path class="d" d="m56.5364,86.8923c-.048.0961-.0961.1921-.1441.2882.048-.0961.0961-.1921.1441-.2882Z"/>
    <path class="f" d="m59.0951,55.9276c-.0354-.0543-.0709-.1087-.1063-.163.0776-.0598.1552-.1196.2329-.1794.0214.0181.0428.0362.0642.0543-.0636.096-.1272.1921-.1907.2881Z"/>
    <path class="d" d="m54.6631,86.7482v-.2882c.075.0592.15.1183.225.1775-.075.0369-.15.0738-.225.1107Z"/>
    <path class="d" d="m56.3923,54.9011v.144l-.1438.144s-.0007.0003-.0007.0003c.0481-.0961.0963-.1922.1445-.2883Z"/>
    <path class="f" d="m60.0833,57.2473c-.0178-.0063-.0504-.0121-.0506-.019-.0007-.0202.0115-.0408.0187-.0612.0178.0063.0504.0121.0506.0189.0006.0202-.0115.0408-.0187.0612Z"/>
    <path class="d" d="m57.2569,77.6696c-.048.048-.0961.0961-.1441.1441.048-.048.0961-.0961.1441-.1441Z"/>
    <path class="h" d="m57.4087,80.5501c-.0476.0579-.0952.1158-.1429.1737.0476-.0579.0952-.1158.1429-.1737Z"/>
    <path class="h" d="m57.269,81.7079c-.0493.0074-.0986.0149-.1479.0224.0433-.0563.0866-.1125.1299-.1688l.018.1464Z"/>
    <path class="f" d="m58.8261,55.5366c-.0498-.0635-.0997-.127-.1496-.1905.0498.0635.0997.127.1496.1905Z"/>
    <path class="d" d="m46.5034,98.3262c-.0312-.3589-.1245-.7178-.1948-1.0757-.0366-.1833-.1953-.4495-.1265-.5295.481-.5574-.0679-1.4539.6538-1.9253.0703-.0457.0254-.2664.0288-.3225-.2651-.1599-.6353-.2705-.6504-.4175-.0239-.2307.1362-.5435.3179-.7192.4761-.4624-.0439-.5869-.2314-.8289-.0752.0474-.1509.095-.2266.1423-.0688.3955-.1841.7896-.1987,1.187-.0562,1.5586.019,3.1025.2598,4.6311.1226-.0481.2427-.1021.3682-.1418Z"/>
    <path class="j" d="m34.9324,44.9562c.0445.0469.0891.0938.1336.1406-.0445-.0469-.0891-.0938-.1336-.1406Z"/>
    <path class="j" d="m34.8035,44.8203c.0398.0421.0796.0842.1194.1262-.0398-.0421-.0796-.0842-.1194-.1262Z"/>
    <path class="d" d="m41.8365,53.0278c.048.2402.096.4804.144.7206-.2391.2158-.6978.4532-.6791.6436.0778.7904.2951,1.5677.4761,2.3464.0171.0736.1345.1286.212.1828.3583.2505.3457.496.0701.8304-.564.6842-.4871,2.0319.08,2.6825.0908.1042.0533.3407.0359.512-.0134.1315-.1679.3054-.1239.3769.354.5746.1858.969-.258,1.4404-.1582.1681.0905.7192.1535,1.0955.2747-.1492.5541-.2906.8222-.451.133-.0796.2452-.1941.3668-.2929.0473.2883.0947.5766.142.8649-.0954.1363-.2712.2712-.2737.4092-.0213,1.1543-.03,2.3097.0005,3.4636.0107.4065.1171.8328.7066.7384.0005.2882.0009.5764.0014.8646-.2745.013-.5491.0261-.8974.0426.1411.7453.262,1.3839.3829,2.0224-.0897.0176-.1794.0352-.2692.0528.528.3262.6286.666.2044,1.1195-.1352.1445-.1202.447-.1387.68-.054.678-.1518,1.361-.1116,2.0348.0265.4445-.2032,1.085.5395,1.2531l.0005.8646c-.2626.2119-.5253.4238-.7879.6358.0387.0646.0773.1293.116.1939-.2083.0116-.4167.0233-.625.0349-.048-.1441-.0961-.2882-.1441-.4323.43.0554.5347-.1309.5988-.5603.1191-.797.0152-1.3447-.9047-1.4806-.1162-.0172-.1834-.2803-.2987-.4061-.2308-.2518-.4909-.4771-.7158-.7336-.1318-.1502-.2192-.3394-.3886-.6103h.8867c.2798-.9146.2668-1.7287-.5868-2.4373-.154.1754-.309.3519-.5534.6301,0-.3843-.0145-.6724.0037-.9584.0228-.359.0372-.7244.1166-1.073.2748-1.206-.601-2.299-.3218-3.5025.1058-.4562.1828-.919.2926-1.479-.56-.3013-.5492-.8532-.3003-1.5351.0913-.2502-.091-.6127-.1818-.9139-.1315-.4365-.1048-.7612.217-1.1722.264-.3372.2322-.9087.3219-1.3781.0348-.1819.0758-.3727.0544-.5523-.0223-.187-.1165-.3655-.1792-.5477-.1627.1384-.3587.2535-.4769.423-.084.1205-.063.3142-.1839.4662-.125-.3657-.266-.6968.1275-1.0643.4792-.4475,1.0021-.8828.5192-1.7084-.1651-.2823.0532-.7822.0775-1.1838.034-.5625-.2185-.8927-.792-1.0027-.2145-.0411-.4058-.2034-.5653-.2879.125-.7796.2525-1.4794.3443-2.1839.0524-.4016-.1853-.5651-.5694-.5426,0-.1441-.0001-.2882-.0002-.4323.098-.3222.196-.6443.3394-1.1162-.3376-.4951-.7708-1.1305-1.2041-1.7659.048-.2402.0961-.4803.1441-.7205.0218-.2819-.0004-.5763.0749-.8431.1382-.4901-.1063-.596-.5072-.5979-.2745-.7054-.7637-1.2375-1.3301-1.724-.2171-.1865-.4284-.4527-.4978-.7201-.0908-.3502.0455-.7654-.0663-1.1028-.1917-.5788.0319-.9499.4662-1.3294.7686.5362,1.6189.467,2.5037.2875.6966-.1413,1.2289.5261,1.0318,1.3243-.124.5023.0094.6764.4888.6699.0954.2404.1908.4809.2862.7213-.2693.1638-.5386.3275-.8079.4913.196.3041.3919.6081.6141.9528.0105-.0293.008.0302-.0228.056-.7184.604-.7367,1.6078-.0058,2.1786.5243.4094.7694,1.0287.5824,1.545-.441,1.2179.7744,1.8607.8424,2.8734.0032.0472.2483.0783.3807.1168Zm-1.483,13.5041c.2378.3178.3992.5334.5605.7491.1635-.2401.4408-.4731.4565-.7225.0139-.2212-.2629-.4607-.4113-.6921-.1768.1942-.3535.3885-.6057.6655Zm-1.6491-23.4994c.0171-.0402.0563-.089.045-.1181-.0112-.0286-.0737-.0371-.1137-.0544-.0172.0401-.0566.089-.0452.1177.0115.0288.0736.0375.1139.0548Z"/>
    <path class="d" d="m43.7191,77.8137c.0034.1419.0067.2839.0101.4258-.2352.1352-.4675.2755-.7062.4043-.3774.2035-.7531.3787-.8968-.2536.2083-.0116.4167-.0233.625-.0349-.0387-.0646-.0773-.1293-.116-.1939.2626-.2119.5253-.4239.7879-.6358.0987.0961.1973.1921.296.2882Z"/>
    <path class="j" d="m83.8224,17.0119c.2358-.3126.4716-.6252.7065-.9381q.3092.851-.0887,1.361c-.2039-.1396-.4109-.2812-.6179-.4229Z"/>
    <path class="j" d="m84.5767,16.0266c.3932-.2654.7865-.5308,1.1795-.7963.0499.9166-.3589,1.1927-1.1795.7963Z"/>
    <path class="j" d="m82.9093,18.4316c-.0551-.0031-.1102-.0062-.1652-.0091.0451-.9592.0878-.9951.7923-.6636-.2095.2248-.4183.4488-.6271.6727Z"/>
    <path class="j" d="m82.4747,17.1636c.2875-.0026.575-.0053.8625-.0079-.287.0566-.5699.5625-.8625.0079Z"/>
    <path class="j" d="m83.4866,17.1645c.1012-.0309.2025-.0618.3027-.093.0055.0974.0119.1951.0184.2928-.107-.0666-.2141-.1332-.3211-.1998Z"/>
    <path class="j" d="m83.192,18.563c-.057-.0367-.114-.0733-.1711-.11.057.0367.114.0733.1711.11Z"/>
    <path class="j" d="m85.7562,15.246c.058-.0331.1159-.0662.1739-.0992-.058.0331-.1159.0662-.1739.0992Z"/>
    <path class="j" d="m8.7262,13.8575c.3257-.345.6514-.6899.9771-1.0349v1.1844c-.3803.0411-.6983.0754-1.0162.1098.0131-.0864.0261-.1729.0392-.2593Z"/>
    <path class="d" d="m13.8817,11.9836c.0963.1835.1925.367.2888.5506-.0482.0002-.0964.0004-.1446.0007-.0959-.0001-.1919-.0002-.2879-.0003-.0961-.2299-.1923-.4597-.2884-.6896.144.0462.288.0925.432.1387Z"/>
    <path class="d" d="m12.153,12.3903c-.1232-.0229-.2463-.0458-.3695-.0686-.0046-.0378-.0092-.0756-.0138-.1135.1278-.0353.2556-.0707.3833-.106v.2881Z"/>
    <path class="j" d="m16.9979,16.5025c.0701.0611.1402.1221.2104.1832-.0673.0327-.1346.0653-.2019.098-.0028-.0937-.0057-.1875-.0085-.2812Z"/>
    <path class="j" d="m13.7381,12.5345c.096.0001.1919.0002.2879.0003-.0369.0748-.0738.1497-.1106.2245-.0591-.0749-.1181-.1499-.1772-.2248Z"/>
    <path class="d" d="m37.3986,46.6932c-.036.1709-.072.3418-.108.5126-.081-.0196-.162-.0392-.243-.0588.0422-.1696.0844-.3392.1266-.5088.0748.0183.1497.0366.2245.055Z"/>
    <path class="d" d="m37.8031,48.1282c-.048.2402-.0961.4803-.1441.7205-.447-.3392-.3941-.5784.1441-.7205Z"/>
    <path class="h" d="m38.5237,51.7308c0,.1441.0001.2882.0002.4323-.0051.0894-.0102.1788-.0152.2682-.0623-.0088-.1247-.0176-.187-.0264l.2021-.6741Z"/>
    <path class="h" d="m39.5342,41.7867c.095.1924.19.3849.285.5773-.3301-.0764-.5941-.1854-.285-.5773Z"/>
    <path class="h" d="m38.3275,50.83c-.0175.0399-.0262.1021-.055.1136-.0287.0114-.0776-.028-.1177-.0452.0173-.04.0258-.1026.0544-.1137.0291-.0114.0779.0279.1183.0454Z"/>
    <path class="d" d="m37.3313,47.7562c.04.0172.0801.0345.1201.0517-.0173.04-.0258.1026-.0544.1137-.0291.0113-.0779-.028-.118-.0452.0173-.04.0346-.08.0523-.1202Z"/>
    <path class="h" d="m34.0027,42.4043c-.0407.0157-.0913.0534-.1195.0408-.0284-.0127-.0347-.0752-.0506-.1159.0407-.0157.0912-.0535.1195-.0411.0284.0125.0348.0751.0506.1161Z"/>
    <path class="j" d="m18.9909,18.6207c.1596.1811.3192.3622.4788.5433-.3254-.0483-.6509-.0966-.9763-.1449.1658-.1328.3316-.2656.4975-.3984Z"/>
    <path class="j" d="m17.7511,19.1624c-.0547-.0574-.1095-.1149-.1643-.1721.3308-.4168.4023-.1211.4744.1729l-.0004.0002c-.1033-.0003-.2066-.0006-.3098-.001Z"/>
    <path class="j" d="m18.4561,19.0413c-.0687-.1142-.1375-.2284-.2062-.3426.04-.0206.0801-.0411.1201-.0617.0523.1225.1046.245.1569.3675-.0236.0123-.0472.0245-.0708.0368Z"/>
    <path class="j" d="m18.0144,19.4717c-.0433-.0499-.0866-.0999-.1298-.1498.0588-.0528.1176-.1057.1764-.1585,0,0,.0003-.0002.0004-.0002.0646.038.1291.0761.1937.1141-.0802.0648-.1604.1296-.2406.1944Z"/>
    <path class="j" d="m18.3448,19.8985c-.0357-.0505-.0713-.101-.1069-.1514.0357.0505.0713.101.1069.1514Z"/>
    <path class="h" d="m79.5825,17.8413c.0957-.0477.1914-.0954.287-.1431.0855.1046.1709.2092.2564.3138-.0301.0464-.0602.0927-.0904.1391-.151-.1033-.302-.2065-.4531-.3098Z"/>
    <path class="d" d="m75.4142,24.927c-.0483.0481-.0965.0962-.1448.1443v-.7935l.2018.0091-.057.6401Z"/>
    <path class="f" d="m60.9862,24.4954c0,.1439.0001.2878.0002.4317-.0827-.083-.1655-.166-.2482-.2491.0827-.0609.1653-.1218.248-.1827Z"/>
    <path class="f" d="m18.061,19.1633c-.0588.0528-.1176.1057-.1764.1585-.0444-.0532-.0888-.1063-.1333-.1595.1032.0003.2065.0006.3098.0009Z"/>
    <path class="e" d="m42.6748,58.7826c.1059-.5711.2119-1.1422.3178-1.7133.403-.8983.719-1.8739,1.8707-2.1076.1447.0177.2893.0353.434.053.3632.3089.7265.6177,1.0897.9265.0416.091.0833.182.1247.2728.0273.0404.0549.0809.0824.1214.0596.1461.1192.2922.1787.4383.1304.7606.53,1.4884.2677,2.2997-.0256.079.0761.1992.1188.3003-.0013.1403-.0025.2806-.0038.4209-.0655.195-.1309.39-.1964.585-.0179.097-.0359.194-.0538.2911-.0577.1903-.1153.3806-.173.5709-.0983.1642-.1982.3276-.2947.4928-.7561,1.2945-1.6004,1.4489-2.7227.4971-.2362-.4465-.4723-.8931-.7085-1.3397.02-.0281.0177-.0543-.0068-.0786-.0453-.1223-.0906-.2445-.1359-.3668-.063-.5547-.126-1.1094-.1889-1.664Zm2.4849-1.7096c.0565-.0403.1129-.0806.1694-.1209-.2338-.3454-.3993-.8017-.723-1.0012-.2594-.1599-.6663.6351-.6021,1.2529.0119.1142.0202.2579.0898.3313.193.2035.4175.3771.6296.5625.1454-.2462.3006-.4875.4304-.7417.0386-.0756.006-.1876.006-.2829Z"/>
    <path class="f" d="m44.8633,54.9617c-1.1517.2337-1.4677,1.2093-1.8707,2.1076-.0963-.4825-.1927-.9651-.289-1.4477.2876-.327.5751-.6539.8799-1.0005.2482.4825,1.0121-.4608,1.2798.3406Z"/>
    <path class="d" d="m47.7449,48.4165c-.0475.4322-.095.8645-.1425,1.2967-.3196.0723-.6399.1877-.9582.1825-.0681-.0011-.1964-.4467-.172-.6741.0193-.18.1957-.4024.3635-.4939.2772-.1512.6036-.2122.9092-.3111Z"/>
    <path class="d" d="m48.177,53.316c.0486.9127.0973,1.8253.1459,2.738-.6238-.4417-1.0311-1.9832-.6394-2.536.0868-.1224.325-.1375.4935-.202Z"/>
    <path class="d" d="m48.321,56.3422c.049.7685.0979,1.5369.1469,2.3054-.2886-.2401-.5771-.4802-.8657-.7203,0-.0961-.0001-.1921-.0002-.2882v-.5763c.048-.0961.0961-.1922.1441-.2883.1916-.1441.3832-.2882.5748-.4322Z"/>
    <path class="f" d="m47.6021,57.6391c0,.0961.0001.1921.0002.2882,0,.0961,0,.1921,0,.2882,0,.2882-.0001.5764-.0002.8646-.1476.0979-.2953.1958-.4429.2937-.0426-.1011-.1443-.2213-.1188-.3003.2624-.8113-.1373-1.5391-.2677-2.2997.3245.0002.649.0004.9734.0007-.048.0961-.0961.1922-.1441.2883-.0925.0843-.275.1949-.2596.2478.0363.1242.167.2208.2596.3285Z"/>
    <path class="d" d="m47.6023,49.7132c.0955.1524.2604.2984.2749.4582.0734.8061.1077,1.6157.1557,2.4241-.1901-.1892-.5373-.3742-.5426-.5684-.0208-.7697.0654-1.5423.1119-2.3139Z"/>
    <path class="f" d="m46.3869,55.9412c-.3632-.3088-.7265-.6176-1.0897-.9265.4851-.9111.8207.1797,1.2442.0929-.0515.2779-.103.5557-.1545.8336Z"/>
    <path class="f" d="m41.1173,46.399c-.0476-.2402-.0953-.4804-.1429-.7205.1851.1086.3702.2172.5554.3258-.1375.1316-.275.2632-.4125.3947Z"/>
    <path class="f" d="m40.8265,44.5272c-.0949-.2887-.1897-.5775-.2846-.8662.7132.0856.467.4864.2846.8662Z"/>
    <path class="f" d="m43.1382,53.7119c-.0405.1864-.078.3736-.132.5559-.0021.0072-.1608-.0319-.2466-.0494.0405-.1864.081-.3728.1214-.5592.0857.0176.1714.0351.2572.0527Z"/>
    <path class="f" d="m40.3966,42.7965c-.0477-.1922-.0955-.3844-.1432-.5766.1368.1064.2736.2127.4104.3191-.0891.0858-.1781.1716-.2672.2575Z"/>
    <path class="f" d="m41.8373,49.8578c-.0479-.1922-.0959-.3844-.1438-.5766.0479.1922.0959.3844.1438.5766Z"/>
    <path class="f" d="m46.5941,56.3355c-.0275-.0405-.0551-.081-.0824-.1214.0276.0406.055.081.0824.1214Z"/>
    <path class="f" d="m41.6937,49.2814c0-.0483,0-.0965,0-.1448v.1448Z"/>
    <path class="e" d="m53.5117,61.3786c.1363.0939.3965.1981.3897.2802-.0665.7998-.1777,1.5958-.2762,2.3926-.1341.0828-.2682.166-.4023.2491-.3393.1275-.6787.2551-1.018.3827-.4297.0147-.8595.0294-1.2892.0441-.1917-.0007-.3833-.0015-.575-.0022-.1421-.013-.2842-.0261-.4263-.0391-.1922-.0956-.3844-.1911-.5766-.2867-.1434-.1908-.2868-.3817-.4302-.5725l-.1421-.5672c-.0104-.096-.0208-.1919-.0312-.2879.0139-.4758.0277-.9515.0416-1.4273l.003.0068c.1356-.063.2712-.1261.4069-.1891.1325.1569.2649.3137.3973.4705.1035.2404.2071.4808.3106.7211,0,0-.0077-.008-.0075-.008.0511.0987.1021.1973.1531.2959,0,0-.0069-.0012-.0068-.0013.6417,1.0537,1.9258.9115,2.721-.3013.0198-.0461.0396-.0922.0592-.1384.0207-.0175.0303-.0398.0288-.067.1175-.2196.235-.4392.3524-.6587.1058-.0988.2117-.1977.3176-.2965Z"/>
    <path class="f" d="m52.7537,62.5392c-.7952,1.2129-2.0793,1.355-2.721.3013.4126-.066.8234-.149,1.2384-.1937.4923-.0531.9882-.0732,1.4826-.1076Z"/>
    <path class="d" d="m48.1781,47.552c-.0955-.7686-.191-1.5372-.2865-2.3058.176.1202.4236.2018.5135.3685.2028.376.3277.7941.5045,1.2471-.175.1651-.4533.4277-.7316.6903Z"/>
    <path class="d" d="m52.6464,56.774c.0959.9608.1919,1.9217.2878,2.8825-.122-.0623-.3503-.1248-.3501-.1867.0028-.8987.0362-1.7972.0623-2.6958Z"/>
    <path class="d" d="m49.5832,61.8328c-.1324-.1568-.2649-.3137-.3973-.4705.0002-.2804.0005-.5608.0008-.8412.2427.075.3578.6052.7335.2057l.3583.5772c-.0959.0042-.1918.0085-.2878.0127-.0757.1672-.1514.3343-.2271.5015-.0601.0049-.1203.0097-.1804.0146Z"/>
    <path class="d" d="m49.1861,60.3776c-.0473-.4805-.0945-.961-.1418-1.4415.5591.3013.6167.8871.1418,1.4415Z"/>
    <path class="d" d="m48.3218,48.8489c-.0474-.2883-.0949-.5765-.1423-.8648.2511.1409.5021.2819.9261.5199-.3857.1697-.5847.2573-.7838.3449Z"/>
    <path class="d" d="m48.9013,57.639c-.0004-.3842-.0008-.7685-.0012-1.1527.1435.18.4098.3676.3992.538-.0133.2124-.2549.4105-.3979.6148Z"/>
    <path class="f" d="m49.5832,61.8327c.0601-.0049.1203-.0097.1804-.0146.0851.0647.2425.1304.2416.1939-.0026.181-.0696.3612-.1113.5418-.1036-.2403-.2072-.4807-.3107-.7211Z"/>
    <path class="f" d="m53.0753,61.5291c.0003.0482.0006.0964.0008.1445-.1685.0182-.337.0365-.5055.0547-.0003-.0839-.0005-.1679-.0008-.2518.1685.0175.337.035.5055.0526Z"/>
    <path class="d" d="m48.8978,55.6223c-.0472-.2404-.0944-.4807-.1415-.7211.4512.1611.3289.4347.1415.7211Z"/>
    <path class="h" d="m47.459,40.923c-.0018-.1432-.0036-.2864-.0054-.4296.0887.0589.1774.1178.2661.1767-.0869.0843-.1738.1686-.2607.2529Z"/>
    <path class="d" d="m48.756,54.4688c-.0002-.1441-.0005-.2882-.0007-.4323.0874.0834.1748.1668.2622.2502-.0872.0607-.1743.1214-.2615.1821Z"/>
    <path class="h" d="m47.4595,41.4994c0-.0961-.0002-.1922-.0003-.2882.0747.0591.1494.1182.2241.1773-.0746.037-.1492.074-.2238.111Z"/>
    <path class="f" d="m50.0394,62.8419c-.051-.0986-.102-.1973-.1531-.2959.0509.0986.102.1973.1531.2959Z"/>
    <path class="f" d="m52.8417,62.3339c.0015.0271-.0081.0494-.0288.067-.031-.0582-.0621-.1165-.0932-.1748.0407.0359.0813.0719.1219.1078Z"/>
    <path class="d" d="m44.4355,72.1523c.0215.3037.0923.604.1401.906q.8169.4587.3247,2.0569c.5303.0947,1.1855.0327,1.5435.3293.313.2598.2925.9226.4316,1.4541.1226-.0063.3022-.0159.3584-.0188.2256.2966.3979.5239.5708.7512-.0439-.0066-.0879-.0134-.1323-.02.0522,1.2302.1367,2.4602.1455,3.6907.0059.8569-.1089,1.7144-.1382,2.5728-.0195.5698.0039,1.1421.0303,1.7124.0439.958.1372,1.9146.145,2.8726.0034.3701-.2041.676-.6978.606-.1724-.0247-.3638.082-.5464.1287-.0054.0496-.0107.0989-.0161.1482-.0312.144-.0625.2878-.0938.4316.0273.4734.0552.9468.083,1.4202-.0928.2473-.186.4944-.2788.7417-.001.0974-.002.1946-.0024.292l-.0015.2798c.187.2419.707.3665.231.8289-.1816.1758-.3418.4885-.3179.7192.0151.147.3853.2576.6504.4175-.0034.0562.0415.2769-.0288.3225-.7217.4714-.1729,1.3679-.6538,1.9253-.0688.0801.0898.3462.1265.5295.0703.3579.1636.7168.1948,1.0757.543-.1716,1.0991-.2495,1.6382-.2432.0664-.2734.1299-.5474.1943-.8213-.002-.8076-.0034-1.615-.0054-2.4224-.0347-.4492-.0693-.8982-.1089-1.408.0068-.0012.1309-.0227.2563-.0442.0396-.0984.0786-.1968.1182-.2952l.0195-.2793c-.0029-.0525-.0054-.1047-.0078-.157-.0474-.0479-.0942-.0957-.1411-.1433.1787-.3845.3579-.7688.5371-1.1531.0674-.3179.1348-.6357.2021-.9539.0898-.1624.1802-.325.27-.4873.0015-.094.0029-.1882.0044-.2822l-.0078-.0127c-.0488-.094-.0972-.1877-.1455-.2815-.5264-.3845-.5249-.959.0039-1.4407l.0005-.7205c-.0933-.0898-.2671-.1782-.2681-.2695-.0269-1.6433-.0278-3.2871-.0454-4.9307-.0107-.9709-.0415-1.9414-.0625-2.9121-.0161-.729-.0586-1.459-.0273-2.186.0078-.1753.2612-.3398.4019-.5095,0-.8337.0103-1.6672-.0059-2.5005-.0044-.2244-.0884-.447-.1357-.6702-.4414.0305-.5928-.1978-.5811-.6118.0146-.5256.0679-1.0627-.0161-1.575-.0815-.4932-.0156-1.0256-.6006-1.4226-.2388-.1619-.2397-1.2568.0039-1.4302.5532-.3931.4673-.8074.4448-1.3545-.9009.0476-.9131-.657-.9609-1.2437-.0635-.7754-.0127-1.5596-.022-2.3401-.0049-.4031.1953-.5632.5771-.5417.1602-.0806.3198-.1611.4795-.2415-.0327-.3364-.5166-.803.2627-.8967,0,0,.0034.0068.0029.0068-.0562-.7759-.1128-1.5513-.1689-2.3269-.1836.3137-.3667.6272-.5498.9409-.0625.0098-.125.0195-.187.0295-.0425-.3716-.0845-.7432-.127-1.1147h-.144l-.4429.2937c-.001.1404-.0024.2805-.0039.4209.0854.1177.1709.2354.2563.3533-.1509.0771-.3018.1545-.4526.2319-.0181.0969-.0356.1938-.0537.291.2109.0789.4224.1577.6333.2368.0059.0559.0117.1118.0171.168-.2744.0552-.5488.1106-.8232.166-.0986.1643-.1982.3276-.2949.4929-.7559,1.2944-1.6006,1.4487-2.7227.4971.1357,1.6941.2812,3.3875.4043,5.0823.1167,1.6121.2051,3.2261.3164,4.8384Z"/>
    <path class="d" d="m46.5546,96.8497c.0836.1109.1203.1596.157.2083.0468-.0356.1381-.0838.1323-.1046-.0195-.0694-.0626-.1455-.1201-.1846-.0251-.0171-.107.0493-.1692.0808Z"/>
    <path class="d" d="m48.6097,59.2243c-.1833.3136-.3666.6272-.5498.9409-.0624.0098-.1247.0197-.1871.0295-.0422-.3715-.0844-.7431-.1266-1.1146.4883-.3775.212-.6277-.1439-.8646,0-.0961,0-.1921,0-.2882.2886.2401.5771.4802.8657.7203.0473.1922.0945.3845.1418.5767Z"/>
    <path class="d" d="m42.6748,58.7826c.063.5547.126,1.1094.1891,1.6644.0453.1224.0905.2444.1357.3664.0245.0243.0268.0505.0068.079.0432.7411.0864,1.4817.1296,2.2224-.1216.0987-.2338.2133-.3668.2929-.268.1604-.5474.3018-.8222.451-.063-.3763-.3117-.9274-.1535-1.0955.4438-.4715.6119-.8659.258-1.4404-.044-.0714.1105-.2454.1239-.3769.0175-.1713.0549-.4079-.0359-.512-.5671-.6505-.644-1.9983-.08-2.6825.2756-.3344.2882-.5799-.0701-.8304-.0775-.0542-.1949-.1091-.212-.1828-.181-.7786-.3983-1.556-.4761-2.3464-.0187-.1904.44-.4278.6791-.6436.2314,1.6781.4629,3.3562.6943,5.0343Z"/>
    <path class="d" d="m41.8365,53.0278c-.1324-.0386-.3776-.0696-.3807-.1168-.068-1.0126-1.2834-1.6554-.8424-2.8734.187-.5163-.0581-1.1357-.5824-1.545-.731-.5707-.7126-1.5745.0058-2.1786.0308-.0259.0332-.0854.0228-.056-.2222-.3447-.4181-.6488-.6141-.9528.2693-.1638.5386-.3275.8079-.4913.1423.8204.2759,1.6423.4294,2.4606.1287.6861.2843,1.367.4213,2.0516.2468,1.2334.4886,2.4678.7324,3.7017Z"/>
    <path class="d" d="m49.6206,69.7439v.7205c.1436.1799.4097.3672.3989.5376-.0127.2124-.2539.4109-.3965.6152.0469,1.6433.0884,3.2869.1465,4.9297.0098.2795.0898.5564.1377.8345.144.2034.4146.4077.4126.6099-.0137,1.7253-.0703,3.4507-.1367,5.175-.0054.1406-.1787.2747-.2739.4116v1.5852c.1436.3398.4033.6777.4087,1.0198.0156.9561-.0737,1.9138-.1221,2.8711-.0962.7825-.1904,1.5652-.2905,2.3472-.0732.5708-.2241,1.1418-.2129,1.7102.0117.5684.4429,1.2708.231,1.6724-.5024.9536.0405,1.6479.2163,2.4656.0693.3225.0776.658.0693.9973.1416-.0244.2822-.0679.4238-.0798.2749-.2097.5703-.4016.8779-.5842.0059-.0271.0015-.0449.0098-.074.0952-.3428-.0405-.7434-.0195-1.1152.019-.3445.1089-.6851.1753-1.0701-.4912-.8298-.0249-1.7825-.1968-2.6929q.8799-.0281.7061.4741c.0225.0908.0454.1816.0684.2727.0361.1917.0728.3831.1094.5747.0078.0486.0151.0972.0229.1458.1265.0891.3184.1514.3682.2725.2012.4888.5469.4851,1.0142.373-.1611-.1775-.2852-.3149-.478-.5273.2632-.1091.4482-.1855.6328-.2622-.0986-.4805-.1978-.9607-.2964-1.4409-.2144-.0054-.4351.0183-.6406-.0271-.1152-.0254-.3081-.2087-.2915-.2468.4175-.981-.1299-1.9543-.0034-2.9551.1201-.9504.3521-1.9646-.1797-2.9395-.3687-.6763-.1401-1.1519.4468-1.3328-.0146-.1904-.0288-.3809-.043-.5713-.0171-.033-.0376-.0647-.0479-.0996-.0024-.0076.0308-.0261.0474-.0393,0-.1934-.0005-.3862-.0005-.5793-.4302-.2385-.4287-.4788-.0024-.7202l.0303-.2849c.0371-.2412.0742-.4824.1113-.7239l.0054-.4326c-.3867-.1938-.3862-.386.0024-.5762-.0015-.1921-.0029-.3845-.0044-.5767-.4995-.2903-1.0093-.572-.3638-1.2144.0684-.0681.1128-.2644.0674-.3269-.4746-.6489-.1338-1.332-.1265-2.0042.0054-.4534.2305-.5193.5869-.4895v-.4321c-.1582-.011-.3164-.022-.6436-.0444.2754-.2891.4595-.4827.644-.6763v-8.2139c-.8325-.269-.3853-.8218-.2881-1.2969v-.5764c-.9795.1475-1.96.2952-2.9189.4395-.0757.6123.3496,1.3252-.5371,1.5779.0474.4324.0947.8647.1426,1.2971.3672.3406.3677.9548.0005,1.2969Z"/>
    <path class="h" d="m53.6268,92.5127c-.2144-.0053-.4351.0183-.6406-.0271-.1152-.0255-.3078-.2088-.2916-.2469.4176-.9809-.1299-1.9542-.0035-2.9549.1201-.9506.3521-1.9648-.1793-2.9396-.3687-.6763-.1402-1.1519.4466-1.3327.0493.2908.0986.5816.1479.8724.0105.9544-.0353,1.9135.0452,2.8619.1069,1.26.3123,2.5117.4753,3.7669Z"/>
    <path class="d" d="m52.9339,65.1325c-.98.1475-1.96.2951-2.9195.4395-.0754.6122.35,1.3252-.5371,1.578-.0003-.0961-.0006-.1921-.0009-.2882.4591-.2403.4592-.4805-.0002-.7205-.0471-.4323-.0942-.8645-.1413-1.2968.1932-.0528.3863-.1057.5795-.1585.1421.0131.2842.0261.4263.0391.1902.3779.3819.3785.575.0022.4297-.0147.8595-.0294,1.2892-.0441.338.0057.676.0114,1.0141.0171.0005.096.0009.192.0014.288-.0955.0481-.191.0961-.2866.1442Z"/>
    <path class="d" d="m53.2216,67.0059c-.8323-.269-.3851-.8217-.2877-1.2969h.2871c.0002.4323.0004.8646.0006,1.2969Z"/>
    <path class="h" d="m53.219,64.7004c-.338-.0057-.676-.0114-1.0141-.0171.3393-.1276.6786-.2552,1.018-.3827-.0013.1333-.0026.2666-.0039.3999Z"/>
    <path class="h" d="m53.2214,75.9404c-.1584-.0109-.3167-.0218-.6439-.0443.2755-.2891.4599-.4827.6443-.6762-.0001.2402-.0002.4803-.0004.7205Z"/>
    <path class="h" d="m53.221,65.709h-.2871v-.5764c.0955-.048.1911-.0961.2866-.1442.0002.2402.0004.4804.0006.7206Z"/>
    <path class="h" d="m53.5619,82.425c-.0004-.096-.0008-.192-.0012-.288.0626.0478.1252.0957.1878.1435-.0622.0482-.1244.0964-.1866.1445Z"/>
    <path class="h" d="m52.9424,82.7168c.0371-.2413.0742-.4825.1113-.7238-.0371.2413-.0742.4825-.1113.7238Z"/>
    <path class="h" d="m52.9145,83.7219c-.4303-.2386-.4287-.4787-.0025-.7202.0008.2401.0016.4801.0025.7202Z"/>
    <path class="h" d="m53.0589,81.5603c-.3864-.1938-.3862-.3858.0027-.5761-.0009.192-.0018.3841-.0027.5761Z"/>
    <path class="h" d="m52.9153,84.4403c-.0168-.0329-.0373-.0648-.0477-.0996-.0023-.0078.0307-.0261.0474-.0395.0195.0463.0196.0927.0003.1391Z"/>
    <path class="d" d="m56.6258,63.2201c-.0177.04-.0266.102-.0557.1137-.0284.0114-.0774-.0287-.1173-.0461.0176-.0401.0263-.1025.0552-.1139.0287-.0114.0777.0286.1179.0464Z"/>
    <path class="d" d="m56.2486,55.1892l.1438-.144-.1438.144Z"/>
    <path class="f" d="m44.5758,73.0583q.8167.4588.3247,2.0571c.53.0946,1.1853.0326,1.5432.3292.3133.2597.2926.9225.4318,1.4542.1227-.0064.3025-.0159.3583-.0188.2256.2966.3984.5239.5712.7511l-.1326-.0201c.0522,1.2302.1368,2.4601.1454,3.6906.006.8571-.1087,1.7144-.1381,2.5727-.0195.5699.0038,1.1423.0302,1.7126.0443.9579.1374,1.9146.1453,2.8724.003.3701-.2044.6762-.6976.606-.1726-.0246-.3639.0821-.5467.1288.0481-.4309.0962-.8617.1444-1.2926.0359-.1923.0718-.3846.1077-.5769.1419-.9609.2837-1.9217.4256-2.8826.0053-.0959.0106-.1917.0158-.2875-.0049-.3845-.0098-.769-.0147-1.1534.0128-.0947.0256-.1893.0385-.284.0428-.0777.1302-.1608.1217-.2325-.1785-1.5108-.3678-3.0203-.5549-4.5301-.0228-.0979-.0455-.1959-.0683-.2938-.0285-.0471-.057-.0941-.0855-.1412,0,0,.0016.002.0016.002-.322-1.1231-1.0607-1.8325-2.164-2.18-.001-.7611-.0019-1.5221-.0029-2.2832Z"/>
    <path class="c" d="m46.5841,91.194c-.0931.2473-.1861.4945-.2792.7418-.0556-.003-.1112-.006-.1669-.009.0639-.2959-.0548-.7029.446-.7328Z"/>
    <path class="f" d="m46.5946,89.3423c-.0313.1439-.0626.2877-.0938.4316.0313-.1439.0626-.2877.0938-.4316Z"/>
    <path class="c" d="m46.3025,92.2279c-.0005.0933-.0009.1865-.0014.2797-.0756.0474-.1512.0949-.2267.1423-.0146-.1423-.0292-.2847-.0438-.427.0906.0016.1813.0033.2719.005Z"/>
    <path class="d" d="m46.3025,92.2279c-.0907-.0017-.1813-.0033-.2719-.005.0359-.0987.0719-.1974.1077-.2961.0555.003.1111.006.1667.009-.0008.0974-.0016.1947-.0025.2921Z"/>
    <path class="h" d="m49.2061,90.4055c.0947.03.2744.0691.272.0889-.0371.3494-.1411.6958-.1436,1.0435-.0103,1.4189-.0942,2.8489.0488,4.2542.0859.8457.3145,1.677.5376,2.5088.0962-.0222.1924-.0376.2881-.0542.0083-.3394,0-.6748-.0693-.9973-.1758-.8176-.7188-1.512-.2163-2.4656.2119-.4016-.2192-1.104-.231-1.6724-.0112-.5684.1396-1.1394.2129-1.7102.1001-.782.1943-1.5647.2905-2.3472h-.2886c-.145.1897-.29.3796-.4346.5693l.0078.0127c.0747.0349.1499.0698.2246.1047-.0762.0591-.1528.1182-.229.1775-.0898.1624-.1802.325-.27.4873Z"/>
    <path class="j" d="m48.4667,92.5124c.179-.3844.358-.7687.537-1.153-.1294.4845-.2587.9689-.3881,1.4534-.0026-.0523-.0053-.1047-.0079-.157-.047-.0478-.094-.0956-.141-.1433Z"/>
    <path class="d" d="m48.3306,94.8394c-.0348-.4491-.0696-.8981-.109-1.408.0069-.0012.1336-.0231.2604-.0449-.0504.4843-.1009.9686-.1514,1.4529Z"/>
    <path class="d" d="m48.4763,93.3911c.04-.0997.08-.1993.1201-.299-.04.0997-.08.1993-.1201.299Z"/>
    <path class="h" d="m51.6763,95.3232c-.0664.385-.1562.7256-.1753,1.0701-.021.3718.1147.7725.0195,1.1152-.0083.0291-.0039.0469-.0098.074.188-.1118.376-.2234.5786-.3232.0254-.0125.0513-.02.0767-.0322.083-.0952.1758-.1704.2627-.2573-.1689-1.1064-.3413-2.2124-.4854-3.322-.022-.1677.1562-.3616.2422-.5432q.1738-.5022-.7061-.4741c.1719.9104-.2944,1.863.1968,2.6929Z"/>
    <path class="h" d="m52.2537,93.3772c.0365.1916.073.3831.1095.5747-.0365-.1916-.073-.3831-.1095-.5747Z"/>
    <path class="c" d="m44.5758,73.0583c.001.7611.0019,1.5221.0029,2.2832-.1457.0007-.2913.0013-.437.002-.0483-1.2605-.0736-2.5225-.1537-3.7809-.0449-.7053-.1805-1.4048-.2752-2.1069-.0005-.2882-.0009-.5764-.0014-.8646l-.4334-4.6112c-.0473-.2883-.0947-.5766-.142-.8649-.0432-.7407-.0863-1.4813-.1296-2.2224.2361.4462.4723.8927.7084,1.3393.1357,1.694.2814,3.3873.4042,5.0823.1168,1.612.2052,3.226.3168,4.8384.021.3037.092.604.14.9058Z"/>
    <path class="d" d="m43.7127,69.4557c.0947.7021.2303,1.4016.2752,2.1069.0801,1.2585.1055,2.5204.1537,3.7809-.392.0194-.8101.007-.7314.6001.0201.1361.0402.2721.0603.4082,0,0-.0181-.0037-.0183-.0035-.01.1043-.0199.2085-.0297.3127-.7427-.1681-.513-.8086-.5395-1.2531-.0402-.6738.0576-1.3569.1116-2.0348.0186-.233.0035-.5355.1387-.68.4242-.4535.3237-.7932-.2044-1.1195.0897-.0176.1794-.0352.2692-.0528-.1209-.6385-.2418-1.2771-.3829-2.0224.3483-.0165.6229-.0296.8974-.0426Z"/>
    <path class="d" d="m43.278,63.9798l.4334,4.6112c-.5895.0944-.6959-.332-.7066-.7384-.0305-1.1539-.0218-2.3093-.0005-3.4636.0026-.138.1783-.2729.2737-.4092Z"/>
    <path class="d" d="m40.3535,66.5318c.2522-.2771.4289-.4713.6057-.6655.1485.2314.4252.4709.4113.6921-.0157.2494-.293.4824-.4565.7225-.1614-.2157-.3228-.4313-.5605-.7491Z"/>
    <path class="h" d="m43.4226,76.6609c.0099-.1042.0197-.2084.0297-.3127.089.4884.1779.977.2668,1.4655-.0987-.0961-.1973-.1921-.296-.2882l-.0005-.8646Z"/>
    <path class="d" d="m38.704,43.0326c-.0399-.0175-.1021-.0261-.1136-.055-.0114-.0287.028-.0776.0452-.1177.04.0173.1025.0258.1137.0544.0114.0291-.0279.0779-.0453.1183Z"/>
    <path class="h" d="m43.4706,76.3518c-.0201-.1361-.0402-.2721-.0603-.4082.0201.1361.0402.2721.0603.4082Z"/>
    <path class="f" d="m46.9052,60.6708c.2111.0789.4223.1578.6335.2367.0057.056.0115.112.0172.168-.2745.0554-.5491.1107-.8236.1661.0576-.1903.1153-.3806.173-.5709Z"/>
    <path class="f" d="m47.1554,59.7948c.0854.1177.1709.2354.2563.3531-.151.0773-.3021.1546-.4529.2319.0657-.195.1312-.39.1966-.585Z"/>
    <path class="c" d="m42.9996,60.8135c-.0452-.122-.0904-.2441-.1357-.3664.0452.1219.0904.2442.1357.3664Z"/>
    <path class="d" d="m47.6021,57.6391c-.0925-.1078-.2233-.2044-.2596-.3285-.0154-.0528.167-.1634.2596-.2478v.5763Z"/>
    <path class="d" d="m47.6023,58.2155c.356.2369.6322.4871.1439.8646h-.1441c0-.2882.0001-.5764.0002-.8646Z"/>
    <path class="c" d="m49.9072,89.0539c-.1449.1898-.2898.3796-.4346.5694-.0486-.0939-.0971-.1877-.1456-.2815.0014-.4802.0027-.9605.004-1.4407.0002-.2402.0004-.4803.0005-.7205-.0005-3.6026-.0009-7.2052-.0014-10.8078.0002-.8335.0102-1.6673-.006-2.5005-.0044-.2242-.0884-.4469-.1359-.6702-.0008-.7684-.0016-1.5369-.0024-2.3053,0-.0961,0-.1921,0-.2882l-.1441-3.8908c-.0472-.2407-.0945-.4813-.1417-.722-.0004-.3358-.0007-.6715-.0011-1.0073-.0004-.0961-.0009-.1921-.0013-.2882.0033-.2911.0067-.5822.01-.8734.1434.1908.2868.3817.4301.5725-.001.1484-.0019.2968-.0029.4452.0471.4323.0942.8645.1413,1.2968,0,.2402.0001.4803.0002.7205.0003.0961.0006.1921.0009.2882.0475.4323.095.8646.1425,1.2969.0002.4323.0005.8646.0007,1.2969,0,.2402,0,.4803.0001.7205.0008.3843.0016.7686.0024,1.1529.047,1.6433.0884,3.2868.1462,4.9297.0098.2794.09.5564.1377.8345.0006,2.0655.0013,4.1309.0019,6.1964,0,.5284,0,1.0569,0,1.5853-.0006,1.2969-.0012,2.5938-.0017,3.8908Z"/>
    <path class="f" d="m48.9077,63.8269c-.0033.2911-.0067.5822-.01.8734h-.2869l-.2882-.2882c.0667-.107.214-.2455.1865-.3155-.1324-.3373-.3118-.656-.4746-.9814-.0002-.1441-.0005-.2883-.0007-.4324.16-.0806.3199-.1612.4793-.2415-.0328-.3365-.5166-.8029.2627-.8968-.0137.4758-.0276.9516-.0414,1.4273-.0696.0417-.1392.0834-.2088.1252.08.0543.16.1085.24.1628l.1421.5672Z"/>
    <path class="h" d="m49.3349,64.8445c.001-.1484.0019-.2968.0029-.4452.1922.0956.3844.1911.5766.2867-.1932.0528-.3863.1056-.5795.1585Z"/>
    <path class="h" d="m50.9158,64.7273c-.1931.3763-.3848.3757-.575-.0022.1917.0007.3834.0015.575.0022Z"/>
    <path class="d" d="m48.7656,63.2597c-.08-.0543-.16-.1085-.24-.1628.0696-.0417.1392-.0834.2088-.1252.0104.096.0208.1919.0312.2879Z"/>
    <path class="d" d="m48.0339,62.6828c.0002.1441.0005.2883.0007.4324.096.4323.192.8646.288,1.2969l.2882.2882.2882.2882c.0004.3358.0007.6715.001,1.0073-.1564.2806-.5411.6061.1417.722.048,1.2969.096,2.5939.1441,3.8908-.0746.037-.1492.0739-.2239.1109.0747.0591.1493.1182.224.1774.0008.7684.0016,1.5369.0024,2.3053-.4409.0307-.5924-.1977-.5808-.6117.0147-.5256.0681-1.0628-.0163-1.575-.0812-.493-.0153-1.0257-.6005-1.4225-.2388-.1619-.2399-1.2569.0041-1.4302.5534-.393.4675-.8075.4446-1.3545-.9008.0475-.9129-.6571-.9609-1.2438-.0634-.7753-.0125-1.5597-.0218-2.34-.0048-.4032.1951-.5634.5773-.5417Z"/>
    <path class="d" d="m49.3301,76.3728c.0005,3.6026.0009,7.2052.0014,10.8078-.0934-.0897-.2668-.1781-.2682-.2693-.0268-1.6434-.0275-3.2872-.0453-4.9308-.0105-.9708-.0412-1.9415-.0625-2.9122-.0159-.7289-.0585-1.459-.0271-2.1858.0076-.1754.2612-.34.4017-.5096Z"/>
    <path class="d" d="m49.331,87.9011c-.0013.4802-.0026.9605-.004,1.4407-.5262-.3844-.5246-.959.004-1.4407Z"/>
    <path class="d" d="m46.5546,96.8497c.0622-.0316.144-.0979.1692-.0808.0575.0391.1006.1152.1201.1846.0059.0208-.0855.069-.1323.1046-.0367-.0487-.0734-.0974-.157-.2083Z"/>
    <path class="c" d="m49.4804,89.636c.0749.0349.1497.0699.2246.1048-.0763.0591-.1526.1182-.2289.1774.0015-.0941.0029-.1881.0043-.2822Z"/>
    <path class="d" d="m48.4667,92.5124c.047.0478.094.0956.141.1433-.047-.0478-.094-.0956-.141-.1433Z"/>
    <path class="d" d="m49.909,83.5778c-.0006-2.0655-.0013-4.1309-.0019-6.1964.1443.2033.4146.4076.413.6097-.0137,1.7254-.0703,3.4507-.1368,5.1752-.0054.1405-.1789.2745-.2743.4115Z"/>
    <path class="d" d="m49.9072,89.0539c.0006-1.2969.0012-2.5938.0017-3.8908.1437.3398.4033.6777.4089,1.0197.0156.9561-.0739,1.9139-.1219,2.871h-.2887Z"/>
    <path class="h" d="m49.6231,71.6173c-.0008-.3843-.0016-.7686-.0024-1.1529.1434.1798.4095.3672.3991.5375-.0131.2124-.2541.4109-.3966.6154Z"/>
    <path class="h" d="m49.6206,69.7439c-.0002-.4323-.0005-.8646-.0007-1.2969.3675.3406.3678.955.0007,1.2969Z"/>
    <path class="h" d="m49.4765,66.8618c0-.2402-.0001-.4803-.0002-.7205.4594.2401.4593.4802.0002.7205Z"/>
    <path class="d" d="m49.0417,66.7177c-.6828-.1159-.2981-.4413-.1417-.722.0472.2407.0945.4813.1417.722Z"/>
    <path class="d" d="m48.899,64.9884l-.2882-.2882h.2869c.0004.0961.0008.1921.0013.2882Z"/>
    <path class="d" d="m49.1859,70.8967c-.0747-.0591-.1493-.1182-.224-.1774.0746-.0369.1493-.0739.2239-.1109,0,.0961,0,.1921,0,.2882Z"/>
    <path class="d" d="m48.3226,64.412c-.096-.4323-.192-.8646-.288-1.2969.1627.3253.3422.6441.4746.9814.0275.07-.1198.2086-.1865.3155Z"/>
  </g>
</svg>